<?xml version="1.0" standalone="no"?>
<!DOCTYPE svg PUBLIC "-//W3C//DTD SVG 1.1//EN" "http://www.w3.org/Graphics/SVG/1.1/DTD/svg11.dtd" >
<svg xmlns="http://www.w3.org/2000/svg">
<metadata>
This is a custom SVG webfont generated by Font Squirrel.
Copyright   : Copyright  2010 Berton Hasebe under exclusive license to Schwartzco Inc dba Commercial Type
</metadata>
<defs>
<font id="PlatformRegular" horiz-adv-x="1558" >
<font-face units-per-em="2048" ascent="1690" descent="-358" />
<missing-glyph horiz-adv-x="315" />
<glyph unicode=" "  horiz-adv-x="315" />
<glyph unicode="&#x09;" horiz-adv-x="315" />
<glyph unicode="&#xa0;" horiz-adv-x="315" />
<glyph unicode="!" horiz-adv-x="434" d="M82 118.5q0 57.5 40 96.5t97 39q55 0 95 -39t40 -96.5t-40 -96t-95 -38.5q-57 0 -97 38.5t-40 96zM119 352v1065h198v-1065h-198z" />
<glyph unicode="&#x22;" horiz-adv-x="604" d="M63 946v471h181v-471h-181zM360 946v471h181v-471h-181z" />
<glyph unicode="#" horiz-adv-x="1189" d="M35 383v164h217l92 375h-180v163h219l82 332h180l-82 -332h236l80 332h180l-80 -332h178v-163h-219l-90 -375h180v-164h-219l-92 -383h-180l92 383h-238l-92 -383h-180l92 383h-176zM432 547h236l90 375h-234z" />
<glyph unicode="$" horiz-adv-x="989" d="M57 409v15h181q4 -242 182 -281v525q-51 18 -111 51q-225 117 -225 362q0 137 92 237.5t244 121.5v121h147v-123q166 -23 243 -131q73 -103 73 -247v-16h-168q-6 184 -148 232v-459q78 -31 117 -51q121 -63 184.5 -153.5t63.5 -231.5q0 -160 -99.5 -269.5t-265.5 -129.5 v-121h-147v119q-188 23 -278 145q-85 117 -85 284zM268 1083q0 -74 38 -121t114 -85v405q-74 -16 -113 -69.5t-39 -129.5zM567 143q80 18 127 77t47 149q0 84 -41 136t-125 95q-4 0 -8 4v-461z" />
<glyph unicode="%" horiz-adv-x="1597" d="M49 1089.5q0 145.5 96.5 244t245.5 98.5q158 0 255 -97.5t97 -244.5q0 -143 -97 -240.5t-251 -97.5q-152 0 -249 96t-97 241.5zM178 0l1075 1415h177l-1076 -1415h-176zM211 1092q0 -84 51 -139.5t135 -55.5q88 0 137.5 55.5t49.5 139.5t-51.5 138t-139.5 54 q-82 0 -132 -54t-50 -138zM854 327.5q0 145.5 96.5 243t245.5 97.5q158 0 255 -96.5t97 -243.5q0 -145 -97 -242.5t-250.5 -97.5t-250 97t-96.5 242.5zM1016 328q0 -84 51 -138.5t135 -54.5q86 0 135 54.5t49 138.5t-51 139t-137 55q-84 0 -133 -55t-49 -139z" />
<glyph unicode="&#x26;" horiz-adv-x="1308" d="M61 403q0 125 62.5 225.5t171.5 157.5q-143 106 -143 285q0 152 105 260.5t288 108.5q184 0 292.5 -102.5t108.5 -264.5q0 -147 -89 -242.5t-226 -109.5l319 -330q61 125 61 312q0 28 -1 57h184q2 -38 2 -74q0 -253 -113 -434l244 -252h-246l-116 117 q-154 -137 -389.5 -137t-375 118.5t-139.5 304.5zM270 420q0 -113 86 -188.5t224 -75.5q162 0 258 90l-420 426q-148 -78 -148 -252zM342 1069q0 -90 60.5 -148.5t150.5 -58.5t148.5 58.5t58.5 152.5q-2 90 -61.5 147.5t-151.5 57.5t-148.5 -58.5t-56.5 -150.5z" />
<glyph unicode="'" horiz-adv-x="305" d="M63 946v471h181v-471h-181z" />
<glyph unicode="(" horiz-adv-x="507" d="M104 -20v1269q0 172 80 255t252 83h43v-168h-37q-92 0 -122.5 -43t-30.5 -131v-1261q0 -88 30.5 -131t122.5 -43h37v-168h-43q-172 0 -252 83t-80 255z" />
<glyph unicode=")" horiz-adv-x="507" d="M29 -190h37q90 0 120.5 43t30.5 131v1261q0 88 -30.5 131t-120.5 43h-37v168h43q172 0 251.5 -83t79.5 -255v-1269q0 -172 -79.5 -255t-251.5 -83h-43v168z" />
<glyph unicode="*" horiz-adv-x="802" d="M63 1184l70 119l199 -119v233h139v-235l199 121l67 -117l-202 -119l202 -117l-67 -119l-199 119v-233h-139v233l-199 -119l-67 117l202 117z" />
<glyph unicode="+" horiz-adv-x="946" d="M49 608v164h336v346h178v-346h336v-164h-336v-348h-178v348h-336z" />
<glyph unicode="," horiz-adv-x="374" d="M51 127q0 55 37 91q39 38 100 38q57 0 95.5 -39t38.5 -98q0 -55 -37 -135l-90 -207h-142l99 215q-47 12 -74 47t-27 88z" />
<glyph unicode="-" horiz-adv-x="577" d="M74 494v184h432v-184h-432z" />
<glyph unicode="." horiz-adv-x="374" d="M51 119q0 59 39 98t96 39q59 0 98.5 -40t39.5 -97.5t-39 -97t-99 -39.5q-57 0 -96 40t-39 97z" />
<glyph unicode="/" horiz-adv-x="927" d="M8 -358l729 1855h183l-730 -1855h-182z" />
<glyph unicode="0" horiz-adv-x="1058" d="M94 426v567q0 211 110.5 332t325.5 121q205 0 320 -124t115 -329v-567q0 -205 -117 -329t-320 -124q-217 0 -325.5 120t-108.5 333zM297 422q0 -121 57.5 -191.5t175.5 -70.5q113 0 173.5 71.5t60.5 190.5v571q0 119 -60.5 193t-173.5 74q-119 0 -176 -72t-57 -195v-571z " />
<glyph unicode="1" horiz-adv-x="475" d="M27 1157v191l155 69h187v-1417h-201v1212z" />
<glyph unicode="2" horiz-adv-x="958" d="M59 0v180l478 535q147 166 147 313q0 104 -55.5 168t-157.5 64q-205 0 -209 -238h-199q0 78 20.5 149.5t66 135t128 101.5t193.5 38q201 0 311.5 -114.5t110.5 -295.5q0 -125 -49 -223t-150 -207l-381 -424h596v-182h-850z" />
<glyph unicode="3" horiz-adv-x="974" d="M39 397h201q2 -109 64.5 -174t175 -65t178 70.5t65.5 181.5q0 117 -69.5 182t-198.5 65h-154v156l328 422h-539v182h774v-180l-329 -408q174 -12 283.5 -114.5t109.5 -302.5q0 -190 -127 -314.5t-320 -124.5q-225 0 -332.5 123t-109.5 301z" />
<glyph unicode="4" horiz-adv-x="1032" d="M25 449v172l616 796h197v-790h166v-178h-166v-449h-197v449h-616zM240 627h401v518z" />
<glyph unicode="5" horiz-adv-x="993" d="M72 397h198q14 -238 230 -237q113 0 173 71.5t60 196.5v51q0 121 -56 190.5t-171 69.5q-152 0 -207 -110h-197v788h752v-182h-557v-393q80 84 242 84q197 0 295 -115t98 -330v-51q0 -201 -112.5 -329t-319.5 -128q-217 0 -320.5 115.5t-107.5 308.5z" />
<glyph unicode="6" horiz-adv-x="1030" d="M94 424v545q0 213 111.5 345t339.5 132q264 0 379 -182l-140 -119q-86 115 -233 115q-260 0 -256 -287v-144q33 45 103.5 80t162.5 35q201 0 301.5 -114.5t100.5 -329.5v-76q0 -199 -116 -325t-319 -126q-217 0 -325.5 120t-108.5 331zM295 422q0 -121 57.5 -191.5 t175.5 -70.5q115 0 175.5 72.5t60.5 189.5v80q0 256 -232 256q-115 0 -175 -66.5t-62 -179.5v-90z" />
<glyph unicode="7" horiz-adv-x="913" d="M31 1235v182h831v-147l-495 -1270h-220l488 1235h-604z" />
<glyph unicode="8" horiz-adv-x="1003" d="M49 391q0 233 195 344q-168 106 -168 316q0 168 113.5 281.5t312.5 113.5q197 0 310.5 -112.5t113.5 -282.5q0 -209 -172 -314q199 -104 198 -346q0 -176 -123.5 -296t-328.5 -122q-209 2 -330 119t-121 299zM256 397q0 -106 67.5 -175.5t176.5 -69.5q111 0 179.5 68.5 t68.5 177t-69 178t-179 69.5q-113 0 -178.5 -68.5t-65.5 -179.5zM279 1044.5q0 -98.5 62 -162t160.5 -63.5t161 63.5t62.5 162t-61.5 161t-162 62.5t-161.5 -62.5t-61 -161z" />
<glyph unicode="9" horiz-adv-x="1030" d="M68 920v75q0 199 114.5 325t317.5 126q215 0 325.5 -119t110.5 -330v-546q0 -217 -109.5 -347.5t-337.5 -130.5q-256 0 -380 183l137 118q92 -115 239 -114q250 0 250 286v142q-33 -47 -100.5 -80t-153.5 -33q-205 0 -309 115t-104 330zM268 915q0 -119 58.5 -186 t177.5 -67q113 0 171 66.5t62 178.5v90q0 123 -59.5 193t-177.5 70q-115 0 -173.5 -72t-58.5 -191v-82z" />
<glyph unicode=":" horiz-adv-x="374" d="M51 119q0 59 39 98t96 39q59 0 98.5 -40t39.5 -97.5t-39 -97t-99 -39.5q-57 0 -96 40t-39 97zM51 834q0 59 39 98t96 39q59 0 98.5 -39t39.5 -98.5t-39 -98.5t-99 -39q-57 0 -96 40.5t-39 97.5z" />
<glyph unicode=";" horiz-adv-x="374" d="M51 127q0 55 37 91q39 38 100 38q57 0 95.5 -39t38.5 -98q0 -55 -37 -135l-90 -207h-142l99 215q-47 12 -74 47t-27 88zM51 834q0 59 39 98t96 39q59 0 98.5 -39t39.5 -98.5t-39 -98.5t-99 -39q-57 0 -96 40.5t-39 97.5z" />
<glyph unicode="&#x3c;" horiz-adv-x="845" d="M51 604v174l742 338v-176l-555 -246l555 -252v-174z" />
<glyph unicode="=" horiz-adv-x="970" d="M59 440v158h850v-158h-850zM59 762v158h850v-158h-850z" />
<glyph unicode="&#x3e;" horiz-adv-x="837" d="M53 268v174l547 252l-547 246v176l735 -338v-174z" />
<glyph unicode="?" horiz-adv-x="946" d="M49 1012v14q0 55 13 113q15 66 57.5 137.5t132.5 117.5t219 46q199 0 313.5 -114t114.5 -288q0 -158 -98.5 -262t-257.5 -112v-312h-195v459h109q109 0 175 57.5t66 167.5q0 102 -62.5 167t-164.5 65q-68 0 -116 -25.5t-70.5 -67.5t-31.5 -82t-9 -81h-195zM309 118.5 q0 57.5 40 96.5t97 39q55 0 95.5 -39t40.5 -96.5t-40 -96t-96 -38.5q-57 0 -97 38.5t-40 96z" />
<glyph unicode="@" horiz-adv-x="1955" d="M53 582q0 403 265.5 665t680.5 262q418 0 661 -230t243 -583q0 -258 -110 -402t-282 -144q-186 0 -237 147q-41 -61 -126 -105.5t-192 -44.5q-195 0 -315.5 121t-120.5 312q0 186 122 312t306 126q90 0 164 -31t111 -78v95h178v-547q0 -154 129 -154q86 0 143.5 105.5 t57.5 279.5q0 309 -199 488.5t-539 179.5q-346 0 -553 -222.5t-207 -547.5q0 -346 223.5 -554t585.5 -208q311 0 537 196l94 -114q-100 -100 -268 -169t-367 -69q-453 0 -719 258.5t-266 655.5zM707 582q0 -117 69.5 -192t181.5 -75q115 0 190 73t75 193.5t-76 194.5 t-191 74q-113 0 -181 -74.5t-68 -193.5z" />
<glyph unicode="A" horiz-adv-x="1292" d="M-4 0l532 1417h211l557 -1417h-211l-182 467h-532l-176 -467h-199zM434 639h402l-203 522z" />
<glyph unicode="B" horiz-adv-x="978" d="M111 0v1417h364q199 0 305.5 -95t106.5 -278q0 -100 -43 -178t-119 -118q201 -86 201 -338q0 -190 -118 -300t-308 -110h-389zM309 176h168q117 0 178.5 64.5t61.5 175.5q0 106 -61.5 167.5t-178.5 61.5h-168v-469zM309 815h156q104 0 159.5 56.5t55.5 158.5 q0 211 -215 211h-156v-426z" />
<glyph unicode="C" horiz-adv-x="1277" d="M53 709q0 319 204 528t523 209q281 0 457 -164l-119 -147q-143 125 -338 125q-236 0 -376 -154t-140 -397q0 -240 146.5 -394.5t375.5 -154.5q193 0 349 139l116 -139q-190 -186 -467 -187q-326 0 -528.5 207t-202.5 529z" />
<glyph unicode="D" horiz-adv-x="1126" d="M111 0v1417h235q340 0 533.5 -190.5t193.5 -515.5q0 -324 -194.5 -517.5t-532.5 -193.5h-235zM311 180h43h7q237 0 368 138q133 140 133 390t-133 391q-131 138 -368 138h-7h-43v-1057z" />
<glyph unicode="E" horiz-adv-x="804" d="M111 0v1417h616v-186h-416v-410h406v-184h-406v-451h422v-186h-622z" />
<glyph unicode="F" horiz-adv-x="798" d="M111 0v1417h620v-186h-420v-410h408v-184h-408v-637h-200z" />
<glyph unicode="G" horiz-adv-x="1466" d="M53 709q0 317 204 527t521 210q197 0 334 -70.5t215 -179.5l-149 -123q-152 186 -402 187q-225 0 -368.5 -154t-143.5 -397.5t145.5 -396t374.5 -152.5q242 0 385 147v250h-258v172h457v-729h-197v104q-156 -131 -395 -131q-317 0 -520 205t-203 531z" />
<glyph unicode="H" horiz-adv-x="1300" d="M111 0v1417h200v-588h678v588h201v-1417h-201v639h-678v-639h-200z" />
<glyph unicode="I" horiz-adv-x="421" d="M111 0v1417h200v-1417h-200z" />
<glyph unicode="J" horiz-adv-x="536" d="M39 0v182h80q109 0 108 125v1110h201v-1126q0 -145 -62.5 -219t-228.5 -74q-20 0 -56 1t-42 1z" />
<glyph unicode="K" horiz-adv-x="1075" d="M111 0v1417h200v-612l514 612h240l-578 -676l596 -741h-239l-533 647v-647h-200z" />
<glyph unicode="L" horiz-adv-x="765" d="M111 0v1417h200v-1231h412v-186h-612z" />
<glyph unicode="M" horiz-adv-x="1734" d="M111 0v1417h290l469 -1175l469 1175h285v-1417h-197v1153l-464 -1153h-195l-469 1153v-1153h-188z" />
<glyph unicode="N" horiz-adv-x="1345" d="M111 0v1417h206l721 -1087v1087h197v-1417h-203l-725 1075v-1075h-196z" />
<glyph unicode="O" d="M53 709q0 319 205 528t518 209q319 0 524 -208t205 -527q0 -317 -203.5 -527.5t-523 -210.5t-522.5 207t-203 529zM264 708.5q0 -241.5 143.5 -395t370.5 -153.5q231 0 373.5 153.5t142.5 395t-143 396.5t-372.5 155t-372 -155t-142.5 -396.5z" />
<glyph unicode="P" horiz-adv-x="933" d="M111 0v1417h366q201 0 308.5 -98t107.5 -287q0 -184 -114.5 -290.5t-301.5 -106.5h-166v-635h-200zM311 811h156q104 0 160.5 58.5t56.5 160.5q0 100 -55.5 155.5t-161.5 55.5h-156v-430z" />
<glyph unicode="Q" d="M53 709q0 319 205 528t518 209q319 0 524 -208t205 -527q0 -274 -162 -475l123 -111l-129 -145l-135 122q-184 -129 -424 -129q-319 0 -522 207t-203 529zM262 708.5q0 -243.5 143.5 -397t372.5 -153.5q160 0 281 75l-133 121l127 144l145 -131q98 139 98 342 q0 242 -143 397.5t-374.5 155.5t-374 -155t-142.5 -398.5z" />
<glyph unicode="R" horiz-adv-x="1013" d="M111 0v1417h366q201 0 308.5 -98t107.5 -287q0 -129 -58.5 -220t-162.5 -134l356 -678h-215l-334 641h-168v-641h-200zM311 811h156q104 0 160.5 58.5t56.5 160.5q0 100 -55.5 155.5t-161.5 55.5h-156v-430z" />
<glyph unicode="S" horiz-adv-x="987" d="M57 409v15h195q0 -123 58.5 -198.5t183.5 -75.5q102 0 166.5 58t64.5 165q0 147 -152 221q-45 25 -139 62.5t-143 64.5q-201 111 -201 352q0 160 109.5 265.5t289.5 105.5q209 0 306 -114q92 -109 92 -272v-14h-185q-4 102 -58 165t-155 63q-96 0 -148 -53.5t-52 -139.5 q0 -129 137 -196q29 -14 120 -51t142 -64q242 -117 242 -377q0 -184 -120 -300t-316 -116q-231 0 -336 126q-101 121 -101 308z" />
<glyph unicode="T" horiz-adv-x="851" d="M35 1231v186h782v-186h-291v-1231h-200v1231h-291z" />
<glyph unicode="U" horiz-adv-x="1277" d="M102 535v882h201v-882q0 -176 84 -275.5t254 -99.5q162 0 249 103.5t87 273.5v880h199v-882q0 -250 -142.5 -406t-394.5 -156q-266 0 -401.5 150t-135.5 412z" />
<glyph unicode="V" horiz-adv-x="1312" d="M-2 1417h225l439 -1167l440 1167h213l-551 -1417h-215z" />
<glyph unicode="W" horiz-adv-x="2009" d="M2 1417h217l340 -1143l344 1143h217l344 -1143l338 1143h205l-432 -1417h-221l-346 1120l-349 -1120h-219z" />
<glyph unicode="X" horiz-adv-x="1257" d="M-2 0l510 737l-479 680h245l359 -510l354 510h238l-475 -682l510 -735h-232l-403 567l-402 -567h-225z" />
<glyph unicode="Y" horiz-adv-x="985" d="M-8 1417h225l281 -493l280 493h215l-401 -688v-729h-201v727z" />
<glyph unicode="Z" horiz-adv-x="1204" d="M57 0v150l811 1083h-798v184h1075v-149l-819 -1084h821v-184h-1090z" />
<glyph unicode="[" horiz-adv-x="507" d="M104 -358v1945h375v-170h-190v-1605h188v-170h-373z" />
<glyph unicode="\" horiz-adv-x="927" d="M8 1497h182l730 -1855h-183z" />
<glyph unicode="]" horiz-adv-x="507" d="M29 -188h188v1605h-188v170h374v-1945h-374v170z" />
<glyph unicode="^" horiz-adv-x="925" d="M25 788l340 629h198l338 -629h-199l-239 445l-240 -445h-198z" />
<glyph unicode="_" horiz-adv-x="1280" d="M68 -92h1144v-160h-1144v160z" />
<glyph unicode="`" horiz-adv-x="974" d="M250 1462h192l156 -276h-186z" />
<glyph unicode="a" horiz-adv-x="940" d="M53 350q0 158 103.5 259.5t267.5 101.5q150 0 227 -74v92q0 221 -194 221q-92 0 -136.5 -49t-46.5 -125h-182q2 150 95.5 241t271.5 91q385 0 385 -401v-707h-172v86q-88 -102 -248 -102t-265.5 100t-105.5 266zM242 350q0 -88 57 -147.5t147 -59.5q88 0 148.5 59.5 t60.5 147.5t-60 146.5t-150.5 58.5t-146.5 -58.5t-56 -146.5z" />
<glyph unicode="b" horiz-adv-x="1271" d="M100 0v1497h195v-553q55 70 153.5 120t225.5 50q244 0 396.5 -155.5t152.5 -409.5q0 -246 -155 -406.5t-404 -160.5q-129 0 -226.5 50t-150.5 115v-147h-187zM287 547q0 -172 103.5 -281.5t267 -109.5t266 109.5t102.5 281.5t-102.5 282.5t-266.5 110.5 q-166 0 -268 -110.5t-102 -282.5z" />
<glyph unicode="c" horiz-adv-x="1042" d="M49 547q0 242 160 404.5t399 162.5q268 0 408 -176l-121 -123q-115 123 -285 123q-162 0 -262 -110.5t-100 -280.5q0 -172 104.5 -280.5t259.5 -108.5q160 0 289 125l115 -121q-152 -180 -406 -180q-250 0 -405.5 159.5t-155.5 405.5z" />
<glyph unicode="d" horiz-adv-x="1271" d="M49 547q0 244 156.5 405.5t398.5 161.5t373 -158v541h194v-1497h-184v162q-49 -72 -149.5 -126t-229.5 -54q-248 0 -403.5 156.5t-155.5 408.5zM246 547q0 -170 103.5 -280.5t264.5 -110.5q164 0 267.5 109.5t103.5 281.5t-104.5 282.5t-266 110.5t-265 -110.5 t-103.5 -282.5z" />
<glyph unicode="e" horiz-adv-x="1159" d="M49 545q0 250 149.5 409.5t385.5 159.5q242 0 388 -145.5t148 -390.5q0 -55 -4 -89h-866q10 -156 104.5 -244.5t249.5 -88.5q225 0 342 217l150 -78q-59 -137 -184.5 -225t-307.5 -88q-248 0 -401.5 153.5t-153.5 409.5zM256 647h661q-10 135 -101 217t-234 82 q-133 0 -220.5 -80t-105.5 -219z" />
<glyph unicode="f" horiz-adv-x="544" d="M23 930v166h110v69q0 332 316 332h71v-166h-53q-80 0 -109.5 -43t-29.5 -123v-69h188v-166h-188v-930h-195v930h-110z" />
<glyph unicode="g" horiz-adv-x="1269" d="M49 547q0 242 158 404.5t399 162.5q121 0 221.5 -46t155.5 -120v148h188v-910q0 -293 -156.5 -427t-416.5 -134q-246 0 -428 119l76 154q158 -102 354 -103q166 0 271.5 81t105.5 249v31q-43 -68 -138.5 -121t-228.5 -53q-248 0 -404.5 156.5t-156.5 408.5zM246 547 q0 -170 103.5 -280.5t264.5 -110.5q164 0 267.5 109.5t103.5 281.5t-104.5 282.5t-266 110.5t-265 -110.5t-103.5 -282.5z" />
<glyph unicode="h" horiz-adv-x="980" d="M100 0v1497h195v-504q76 115 248 115q176 0 259 -105.5t83 -279.5v-723h-195v702q0 231 -194 232q-96 0 -148.5 -63.5t-52.5 -174.5v-696h-195z" />
<glyph unicode="i" horiz-adv-x="395" d="M68 1331q0 55 37.5 92t91.5 37q55 0 93 -37t38 -92q0 -53 -39 -91t-92.5 -38t-91 38t-37.5 91zM100 0v1096h195v-1096h-195z" />
<glyph unicode="j" horiz-adv-x="395" d="M-82 -190h45q82 0 109.5 43t27.5 122v1121h195v-1119q0 -162 -71.5 -248.5t-241.5 -86.5h-64v168zM68 1331q0 55 37.5 92t91.5 37q55 0 93 -37t38 -92q0 -53 -39 -91t-92.5 -38t-91 38t-37.5 91z" />
<glyph unicode="k" horiz-adv-x="948" d="M100 0v1497h195v-864l401 463h236l-449 -510l465 -586h-239l-414 514v-514h-195z" />
<glyph unicode="l" horiz-adv-x="395" d="M100 0v1497h195v-1497h-195z" />
<glyph unicode="m" horiz-adv-x="1536" d="M100 0v1096h195v-99q82 111 244 111q195 0 270 -145q92 145 281 145q180 0 265 -104.5t85 -276.5v-727h-195v705q0 229 -186 229q-92 0 -141.5 -62.5t-51.5 -166.5v-705h-194v702q0 109 -46 170.5t-139 61.5q-94 0 -143 -65.5t-49 -178.5v-690h-195z" />
<glyph unicode="n" horiz-adv-x="980" d="M100 0v1096h195v-99q76 111 248 111q176 0 259 -105.5t83 -279.5v-723h-195v702q0 231 -194 232q-96 0 -148.5 -63.5t-52.5 -174.5v-696h-195z" />
<glyph unicode="o" horiz-adv-x="1228" d="M49 547q0 248 161 407.5t404 159.5q248 0 407 -159.5t159 -405.5t-162 -406.5t-406 -160.5q-246 0 -404.5 157.5t-158.5 407.5zM246 547q0 -170 103.5 -279.5t265 -109.5t265 109.5t103.5 279.5t-103.5 280.5t-265.5 110.5q-164 0 -266 -109.5t-102 -281.5z" />
<glyph unicode="p" horiz-adv-x="1271" d="M100 -358v1454h187v-158q135 176 385 176q244 0 397.5 -156.5t153.5 -408.5q0 -244 -154 -405.5t-405 -161.5q-129 0 -224.5 47t-144.5 106v-493h-195zM287 547q0 -172 103.5 -281.5t266.5 -109.5q166 0 267.5 109.5t101.5 281.5t-102.5 282.5t-266 110.5t-267 -110.5 t-103.5 -282.5z" />
<glyph unicode="q" horiz-adv-x="1271" d="M49 547q0 246 158 406.5t401 160.5q121 0 222.5 -47t154.5 -121v150h186v-1454h-194v508q-43 -63 -142.5 -115.5t-226.5 -52.5q-248 0 -403.5 156.5t-155.5 408.5zM246 547q0 -172 103.5 -281.5t266.5 -109.5q162 0 265.5 109.5t103.5 281.5t-104.5 282.5t-266.5 110.5 q-164 0 -266 -110.5t-102 -282.5z" />
<glyph unicode="r" horiz-adv-x="575" d="M100 0v1096h195v-107q68 109 237 109h7v-199h-54q-190 0 -190 -211v-688h-195z" />
<glyph unicode="s" horiz-adv-x="817" d="M39 330v14h188q4 -199 183 -199h7q71 0 119 38q50 40 50 112q0 66 -31 101.5t-96 58.5q-20 8 -87 26.5t-108 36.5q-198 86 -198 289q0 137 96 219t248 82q168 0 253 -89t87 -243h-181q-10 180 -163 180q-70 0 -111 -35.5t-41 -99.5q0 -100 111 -139q29 -10 87 -26.5 t87 -26.5q119 -41 178 -115t59 -201q0 -156 -105.5 -240.5t-264.5 -84.5q-195 0 -283 100q-84 96 -84 242z" />
<glyph unicode="t" horiz-adv-x="567" d="M23 930v166h110v168h195v-168h202v-166h-202v-617q0 -78 24.5 -111.5t98.5 -33.5h77v-168q-2 0 -46 -5t-81 -5q-145 0 -206.5 68.5t-61.5 205.5v666h-110z" />
<glyph unicode="u" horiz-adv-x="972" d="M94 373v723h195v-701q0 -231 190 -231q94 0 146.5 64.5t52.5 172.5v695h196v-1096h-194v100q-72 -113 -244 -113q-1 1 -2 1q-174 0 -257 105.5t-83 279.5z" />
<glyph unicode="v" horiz-adv-x="1046" d="M-4 1096h215l319 -860l318 860h203l-418 -1096h-213z" />
<glyph unicode="w" horiz-adv-x="1699" d="M0 1096h215l266 -850l271 850h211l268 -850l268 850h201l-357 -1096h-215l-274 823l-276 -823h-216z" />
<glyph unicode="x" horiz-adv-x="1062" d="M-2 0l422 563l-397 533h231l283 -375l282 375h221l-397 -529l422 -567h-223l-314 412l-313 -412h-217z" />
<glyph unicode="y" horiz-adv-x="1048" d="M-4 1096h215l328 -815l311 815h203l-570 -1454h-190l145 378z" />
<glyph unicode="z" horiz-adv-x="903" d="M47 0v150l571 782h-559v164h797v-150l-584 -782h584v-164h-809z" />
<glyph unicode="{" horiz-adv-x="571" d="M43 528v177h8q74 0 95.5 31.5t21.5 105.5v407q0 172 80 255t252 83h43v-170h-37q-92 0 -123 -42t-31 -130v-418q0 -180 -112 -211q113 -31 112 -213v-419q0 -88 31 -130t123 -42h37v-170h-43q-172 0 -252 82.5t-80 255.5v411q0 74 -21.5 105.5t-95.5 31.5h-8z" />
<glyph unicode="|" horiz-adv-x="460" d="M145 -358v1855h170v-1855h-170z" />
<glyph unicode="}" horiz-adv-x="571" d="M29 -188h37q90 0 120.5 42t30.5 130v419q0 182 115 213q-115 31 -115 211v418q0 88 -30.5 130t-120.5 42h-37v170h43q172 0 251.5 -83t79.5 -255v-407q0 -74 21.5 -105.5t95.5 -31.5h8v-177h-8q-74 0 -95.5 -31.5t-21.5 -105.5v-411q0 -172 -79.5 -255t-251.5 -83h-43 v170z" />
<glyph unicode="~" horiz-adv-x="970" d="M41 469q0 129 68.5 219t199.5 90q92 0 197 -67q98 -66 151 -66q98 0 107 131h166q0 -133 -67.5 -222t-196.5 -89q-90 0 -199 67q-4 4 -16.5 11.5t-16.5 10.5t-14 9t-15.5 8t-13.5 7.5t-14 7.5t-14.5 5t-14.5 4t-14 2t-17 1q-98 0 -110 -129h-166z" />
<glyph unicode="&#xa1;" horiz-adv-x="434" d="M82 1089.5q0 57.5 39 97.5t96 40t97 -40t40 -97.5t-40 -96.5t-97 -39t-96 39t-39 96.5zM119 -211v1071h198v-1071h-198z" />
<glyph unicode="&#xa2;" horiz-adv-x="1046" d="M49 547q0 217 133 372.5t342 184.5v133h144v-131q227 -20 348 -172l-117 -123q-92 104 -231 123v-772q137 16 239 125l111 -121q-131 -158 -350 -176v-129h-144v131q-215 27 -345 180.5t-130 374.5zM244 547q0 -145 77.5 -247.5t202.5 -131.5v762q-129 -27 -204.5 -131.5 t-75.5 -251.5z" />
<glyph unicode="&#xa3;" horiz-adv-x="1075" d="M49 0v180h141v422h-141v174h141v252q0 186 108 302t306 116q113 0 197 -38t129 -101.5t66 -135.5q20 -65 20 -136v-13h-199q0 96 -48 167t-165 71q-106 0 -159.5 -66t-53.5 -176v-242h295v-174h-295v-422h627v-180h-969z" />
<glyph unicode="&#xa5;" horiz-adv-x="1007" d="M8 1417h232l270 -413l268 413h217l-379 -573h295v-150h-309v-176h309v-149h-309v-369h-201v369h-309v149h309v176h-309v150h293z" />
<glyph unicode="&#xa6;" horiz-adv-x="460" d="M145 -358v880h170v-880h-170zM145 639v858h170v-858h-170z" />
<glyph unicode="&#xa7;" horiz-adv-x="1163" d="M61 623q0 111 61.5 185.5t162.5 98.5q-88 94 -88 242q0 154 104.5 257t292.5 103q111 0 191.5 -35.5t121.5 -97t59 -128.5q16 -60 15 -125v-15h-193q0 86 -47 155.5t-147 69.5t-149.5 -49t-49.5 -127q0 -141 170 -199l260 -94q141 -47 208 -130t67 -210 q0 -113 -61.5 -188.5t-149.5 -99.5q86 -86 86 -244q0 -154 -110.5 -259.5t-299.5 -105.5q-207 0 -304 115q-93 110 -93 280v15h197q0 -100 48 -167t154 -67q98 0 152.5 49.5t54.5 133.5q0 139 -176 202l-270 99q-131 49 -199 129t-68 207zM258 637q0 -113 139 -166l271 -96 q41 -15 78 -15q44 0 83 20q74 38 74 128q0 117 -139 166l-252 92q-53 19 -97 19q-47 0 -84 -21q-73 -41 -73 -127z" />
<glyph unicode="&#xa8;" horiz-adv-x="974" d="M203 1329q0 51 34.5 86t86.5 35q53 0 89 -35t36 -86t-37 -86t-88.5 -35t-86 35t-34.5 86zM551 1329q0 51 36 86t87 35t87 -35t36 -86q0 -49 -37 -85t-86 -36q-51 0 -87 35t-36 86z" />
<glyph unicode="&#xa9;" horiz-adv-x="1593" d="M53 709q0 313 207 525t528 212q340 0 546 -207t206 -524q0 -319 -203.5 -530.5t-537.5 -211.5t-540 209.5t-206 526.5zM199 709q0 -264 163.5 -436.5t436.5 -172.5q274 0 435 171t161 442q0 268 -163 436t-444 168q-262 0 -425.5 -171t-163.5 -437zM422 709 q0 172 111.5 286.5t289.5 114.5q166 0 269 -92l-97 -125q-66 66 -174 65q-104 0 -166.5 -70.5t-62.5 -178.5q0 -106 64.5 -177t170.5 -71q104 0 172 63l93 -110q-98 -104 -265 -105q-184 0 -294.5 114t-110.5 286z" />
<glyph unicode="&#xaa;" horiz-adv-x="720" d="M51 854q0 119 77 193.5t202 74.5q104 0 162 -49v70q0 156 -134 155q-123 0 -127 -118h-149q0 113 70.5 181.5t205.5 68.5q289 0 289 -302v-536h-139v51q-68 -63 -176 -63q-123 0 -201 73.5t-80 200.5zM205 854q0 -63 40 -103t103.5 -40t104.5 40t41 103.5t-41 104 t-104.5 40.5t-103.5 -39.5t-40 -105.5z" />
<glyph unicode="&#xab;" horiz-adv-x="712" d="M33 549l170 336h174l-172 -336l170 -334h-172zM336 549l170 336h174l-172 -336l170 -334h-172z" />
<glyph unicode="&#xad;" horiz-adv-x="577" d="M74 494v184h432v-184h-432z" />
<glyph unicode="&#xae;" horiz-adv-x="921" d="M41 1096q0 176 115.5 295.5t300.5 119.5q193 0 309.5 -117.5t116.5 -295.5q0 -176 -117 -296t-305.5 -120t-304 118t-115.5 296zM137 1096q0 -141 87 -233.5t237 -92.5q152 0 237.5 91t85.5 237q0 147 -87 236t-240 89q-147 0 -233.5 -91t-86.5 -236zM319 879v450h156 q152 0 152 -135q0 -80 -64 -113l82 -202h-106l-74 180h-43v-180h-103zM422 1145h51q47 0 47 49q0 45 -47 45h-51v-94z" />
<glyph unicode="&#xaf;" horiz-adv-x="819" d="M174 1223v149h471v-149h-471z" />
<glyph unicode="&#xb0;" horiz-adv-x="714" d="M45 1130.5q0 131.5 87 220.5t224 89q141 0 227.5 -87t86.5 -218q0 -133 -86 -221.5t-226 -88.5q-141 0 -227 87t-86 218.5zM193 1130q0 -74 45 -121.5t120.5 -47.5t119.5 49t44 123q0 76 -45 124t-121 48q-74 0 -118.5 -49.5t-44.5 -125.5z" />
<glyph unicode="&#xb2;" horiz-adv-x="626" d="M63 686v121l256 242q84 80 84 143q0 43 -24.5 68.5t-67.5 25.5q-51 0 -72.5 -30.5t-19.5 -69.5h-151q-1 9 -1 17q0 84 54 152q59 75 190 75q119 0 185.5 -63.5t66.5 -166.5q0 -115 -117 -219l-157 -158h282v-137h-508z" />
<glyph unicode="&#xb3;" horiz-adv-x="636" d="M51 915h154q0 -51 27.5 -79.5t78.5 -28.5q47 0 75 27.5t28 78.5q0 102 -117 103h-94v108l155 160h-266v133h447v-129l-158 -158q78 -6 134 -60t56 -152q0 -109 -72.5 -176.5t-189.5 -67.5q-127 0 -191.5 67.5t-66.5 173.5z" />
<glyph unicode="&#xb4;" horiz-adv-x="974" d="M406 1186l159 276h193l-164 -276h-188z" />
<glyph unicode="&#xb6;" horiz-adv-x="903" d="M43 1139q0 127 85 202.5t224 75.5h146v-1417h-162v856q-125 4 -209 81t-84 202zM633 0v1417h160v-1417h-160z" />
<glyph unicode="&#xb7;" horiz-adv-x="389" d="M57 672q0 59 39 98t96.5 39t97.5 -40t40 -97.5t-40 -97t-97.5 -39.5t-96.5 40t-39 97z" />
<glyph unicode="&#xb8;" horiz-adv-x="819" d="M264 35h123v-115q176 -35 176 -213q0 -106 -71.5 -164.5t-186.5 -58.5h-41v125h43q113 0 113 98t-113 98h-43v230z" />
<glyph unicode="&#xb9;" horiz-adv-x="370" d="M33 1241v133l96 43h143v-731h-155v590z" />
<glyph unicode="&#xba;" horiz-adv-x="913" d="M33 1005.5q0 186.5 120.5 305.5t303.5 119q184 0 303 -119t119 -303.5t-121 -304t-301 -119.5q-186 0 -305 117.5t-119 304zM195 1005.5q0 -120.5 73.5 -197.5t188 -77t187.5 77t73 198q0 119 -74 197.5t-186 78.5q-117 0 -189.5 -78t-72.5 -198.5z" />
<glyph unicode="&#xbb;" horiz-adv-x="712" d="M33 215l172 336l-172 334h172l172 -334l-172 -336h-172zM336 215l172 336l-172 334h172l172 -334l-172 -336h-172z" />
<glyph unicode="&#xbc;" horiz-adv-x="1339" d="M10 0l1057 1417h168l-1057 -1417h-168zM104 1241v133l97 43h143v-731h-156v590zM686 190v134l344 409h154v-405h82v-138h-82v-190h-152v190h-346zM842 328h190v223z" />
<glyph unicode="&#xbd;" horiz-adv-x="1380" d="M10 0l1057 1417h168l-1057 -1417h-168zM104 1241v133l97 43h143v-731h-156v590zM799 0v121l256 241q82 78 82 144q0 43 -25 68.5t-68 25.5q-92 0 -92 -100h-151v12q0 87 55 157q59 75 188 74q119 0 185.5 -63.5t66.5 -165.5q0 -117 -114 -221l-160 -156h283v-137h-506z " />
<glyph unicode="&#xbe;" horiz-adv-x="1488" d="M72 915h153q0 -51 28 -79.5t79 -28.5q47 0 74.5 27.5t27.5 78.5q0 102 -117 103h-94v108l156 160h-266v133h446v-129l-158 -158q78 -6 134.5 -60t56.5 -152q0 -109 -73 -176.5t-189 -67.5q-127 0 -191.5 67.5t-66.5 173.5zM160 0l1057 1417h167l-1056 -1417h-168z M836 190v134l346 409h153v-405h80v-138h-80v-190h-153v190h-346zM991 328h191v223z" />
<glyph unicode="&#xbf;" horiz-adv-x="946" d="M47 168q0 158 98.5 261t257.5 114v317h195v-465h-109q-109 0 -175 -57t-66 -166q0 -104 62.5 -168.5t164.5 -64.5q68 0 116 25.5t70.5 67.5t31.5 83t9 82h195v-14q0 -55 -14 -113q-16 -66 -57.5 -137.5t-132.5 -117.5t-218 -46q-201 0 -314.5 112.5t-113.5 286.5z M365 1091.5q0 57.5 39.5 96.5t97.5 39q55 0 95 -39t40 -96.5t-40 -97.5t-95 -40q-57 0 -97 40t-40 97.5z" />
<glyph unicode="&#xc0;" horiz-adv-x="1292" d="M-4 0l532 1417h211l557 -1417h-211l-182 467h-532l-176 -467h-199zM371 1751h194l152 -258h-187zM434 639h402l-203 522z" />
<glyph unicode="&#xc1;" horiz-adv-x="1292" d="M-4 0l532 1417h211l557 -1417h-211l-182 467h-532l-176 -467h-199zM434 639h402l-203 522zM547 1493l153 258h197l-160 -258h-190z" />
<glyph unicode="&#xc2;" horiz-adv-x="1292" d="M-4 0l532 1417h211l557 -1417h-211l-182 467h-532l-176 -467h-199zM309 1493l221 258h201l221 -258h-188l-133 139l-131 -139h-191zM434 639h402l-203 522z" />
<glyph unicode="&#xc3;" horiz-adv-x="1292" d="M-4 0l532 1417h211l557 -1417h-211l-182 467h-532l-176 -467h-199zM309 1509v14q0 93 51 156q55 68 152 68q57 0 127 -43t104 -43q63 0 68 86h143q2 -109 -52 -174.5t-146 -65.5q-57 0 -129 44t-107 44q-68 0 -67 -86h-144zM434 639h402l-203 522z" />
<glyph unicode="&#xc4;" horiz-adv-x="1292" d="M-4 0l532 1417h211l557 -1417h-211l-182 467h-532l-176 -467h-199zM319 1628q0 51 35 86t86 35q53 0 89 -35t36 -86t-36.5 -86t-88 -35t-86.5 35t-35 86zM434 639h402l-203 522zM702 1628q0 51 35 86t86 35q53 0 89 -35t36 -86t-37 -86t-88 -35t-86 35t-35 86z" />
<glyph unicode="&#xc5;" horiz-adv-x="1292" d="M-4 0l532 1417h211l557 -1417h-211l-182 467h-532l-176 -467h-199zM422 1673q0 90 59.5 149.5t149.5 59.5q98 0 156.5 -57.5t58.5 -147.5t-58.5 -148.5t-154.5 -58.5q-92 0 -151.5 58.5t-59.5 144.5zM434 639h402l-203 522zM537 1675q0 -43 26.5 -70.5t69.5 -27.5 q47 0 72.5 27.5t25.5 72.5t-25.5 72t-72.5 27q-45 0 -70.5 -28t-25.5 -73z" />
<glyph unicode="&#xc6;" horiz-adv-x="1581" d="M-8 0l805 1417h706v-186h-418v-410h406v-184h-406v-451h422v-186h-622v410h-443l-229 -410h-221zM539 584h346v614z" />
<glyph unicode="&#xc7;" horiz-adv-x="1277" d="M53 709q0 319 204 528t523 209q281 0 457 -164l-119 -147q-143 125 -338 125q-236 0 -376 -154t-140 -397q0 -240 146.5 -394.5t375.5 -154.5q193 0 349 139l116 -139q-190 -186 -467 -187q-29 0 -53 2v-55q176 -35 176 -213q0 -106 -71.5 -164.5t-186.5 -58.5h-41v125 h43q113 0 113 98t-113 98h-43v187q-254 53 -404.5 248t-150.5 469z" />
<glyph unicode="&#xc8;" horiz-adv-x="804" d="M111 0v1417h616v-186h-416v-410h406v-184h-406v-451h422v-186h-622zM195 1751h194l152 -258h-187z" />
<glyph unicode="&#xc9;" horiz-adv-x="804" d="M111 0v1417h616v-186h-416v-410h406v-184h-406v-451h422v-186h-622zM303 1493l154 258h196l-159 -258h-191z" />
<glyph unicode="&#xca;" horiz-adv-x="804" d="M94 1493l221 258h201l221 -258h-188l-133 139l-131 -139h-191zM111 0v1417h616v-186h-416v-410h406v-184h-406v-451h422v-186h-622z" />
<glyph unicode="&#xcb;" horiz-adv-x="804" d="M111 0v1417h616v-186h-416v-410h406v-184h-406v-451h422v-186h-622zM115 1628q0 51 34.5 86t86.5 35q53 0 88.5 -35t35.5 -86t-36.5 -86t-88 -35t-86 35t-34.5 86zM498 1628q0 51 34.5 86t85.5 35q53 0 89 -35t36 -86t-36.5 -86t-88 -35t-86 35t-34.5 86z" />
<glyph unicode="&#xcc;" horiz-adv-x="421" d="M-41 1751h195l151 -258h-186zM111 0v1417h200v-1417h-200z" />
<glyph unicode="&#xcd;" horiz-adv-x="421" d="M111 0v1417h200v-1417h-200zM119 1493l153 258h197l-160 -258h-190z" />
<glyph unicode="&#xce;" horiz-adv-x="421" d="M-94 1493l205 258h198l205 -258h-182l-121 141l-121 -141h-184zM111 0v1417h200v-1417h-200z" />
<glyph unicode="&#xcf;" horiz-adv-x="421" d="M-82 1628q0 51 35 86t86 35q53 0 89 -35t36 -86t-37 -86t-88 -35t-86 35t-35 86zM111 0v1417h200v-1417h-200zM260 1628q0 51 35 86t86 35t88 -35t37 -86t-37 -86t-88 -35q-53 0 -87 35t-34 86z" />
<glyph unicode="&#xd0;" horiz-adv-x="1150" d="M18 629v186h115v602h236q340 0 533.5 -190.5t193.5 -515.5q0 -324 -194.5 -517.5t-532.5 -193.5h-236v629h-115zM334 180h43h7q237 0 368 138q133 140 133 390t-133 391q-131 138 -368 138h-7h-43v-422h246v-186h-246v-449z" />
<glyph unicode="&#xd1;" horiz-adv-x="1345" d="M111 0v1417h206l721 -1087v1087h197v-1417h-203l-725 1075v-1075h-196zM383 1509v14q0 93 51 156q55 68 152 68q57 0 126.5 -43t104.5 -43q63 0 68 86h143q2 -109 -52 -174.5t-147 -65.5q-57 0 -128.5 44t-106.5 44q-68 0 -68 -86h-143z" />
<glyph unicode="&#xd2;" d="M53 709q0 319 205 528t518 209q319 0 524 -208t205 -527q0 -317 -203.5 -527.5t-523 -210.5t-522.5 207t-203 529zM264 708.5q0 -241.5 143.5 -395t370.5 -153.5q231 0 374.5 153.5t143.5 395t-144 396.5t-373.5 155t-372 -155t-142.5 -396.5zM524 1751h195l151 -258 h-186z" />
<glyph unicode="&#xd3;" d="M53 709q0 319 205 528t518 209q319 0 524 -208t205 -527q0 -317 -203.5 -527.5t-523 -210.5t-522.5 207t-203 529zM264 708.5q0 -241.5 143.5 -395t370.5 -153.5q231 0 374.5 153.5t143.5 395t-144 396.5t-373.5 155t-372 -155t-142.5 -396.5zM680 1493l154 258h196 l-160 -258h-190z" />
<glyph unicode="&#xd4;" d="M53 709q0 319 205 528t518 209q319 0 524 -208t205 -527q0 -317 -203.5 -527.5t-523 -210.5t-522.5 207t-203 529zM264 708.5q0 -241.5 143.5 -395t370.5 -153.5q231 0 374.5 153.5t143.5 395t-144 396.5t-373.5 155t-372 -155t-142.5 -396.5zM457 1493l221 258h201 l221 -258h-189l-133 139l-131 -139h-190z" />
<glyph unicode="&#xd5;" d="M53 709q0 319 205 528t518 209q319 0 524 -208t205 -527q0 -317 -203.5 -527.5t-523 -210.5t-522.5 207t-203 529zM264 708.5q0 -241.5 143.5 -395t370.5 -153.5q231 0 374.5 153.5t143.5 395t-144 396.5t-373.5 155t-372 -155t-142.5 -396.5zM454 1523q0 93 52 156 q55 68 151 68q59 0 129 -43t103 -43q63 0 67 86h144q2 -109 -52.5 -174.5t-146.5 -65.5q-57 0 -129 44t-106 44q-68 0 -68 -86h-143q0 7 -1 14z" />
<glyph unicode="&#xd6;" d="M53 709q0 319 205 528t518 209q319 0 524 -208t205 -527q0 -317 -203.5 -527.5t-523 -210.5t-522.5 207t-203 529zM264 708.5q0 -241.5 143.5 -395t370.5 -153.5q231 0 374.5 153.5t143.5 395t-144 396.5t-373.5 155t-372 -155t-142.5 -396.5zM467 1628q0 51 35 86t86 35 q53 0 89 -35t36 -86t-37 -86t-88 -35t-86 35t-35 86zM850 1628q0 51 35 86t86 35q53 0 89 -35t36 -86t-37 -86t-88 -35t-86 35t-35 86z" />
<glyph unicode="&#xd7;" horiz-adv-x="831" d="M39 944l119 119l258 -260l258 258l114 -115l-258 -260l263 -262l-117 -115l-262 260l-258 -258l-115 115l258 258z" />
<glyph unicode="&#xd8;" d="M53 709q0 317 205 526t516 209q244 0 416 -123l108 125l134 -115l-107 -125q178 -203 178 -495q0 -317 -204.5 -526.5t-522.5 -209.5q-242 0 -414 123l-110 -129l-131 113l110 127q-178 201 -178 500zM262 709q0 -203 103 -347l702 816q-129 84 -291 84 q-229 0 -371.5 -154.5t-142.5 -398.5zM487 242q129 -84 291 -84q231 0 374.5 154.5t143.5 396.5q0 199 -104 348z" />
<glyph unicode="&#xd9;" horiz-adv-x="1277" d="M102 535v882h201v-882q0 -176 84 -275.5t254 -99.5q162 0 249 103.5t87 273.5v880h199v-882q0 -250 -142.5 -406t-394.5 -156q-266 0 -401.5 150t-135.5 412zM412 1751h194l152 -258h-187z" />
<glyph unicode="&#xda;" horiz-adv-x="1277" d="M102 535v882h201v-882q0 -176 84 -275.5t254 -99.5q162 0 249 103.5t87 273.5v880h199v-882q0 -250 -142.5 -406t-394.5 -156q-266 0 -401.5 150t-135.5 412zM524 1493l154 258h196l-159 -258h-191z" />
<glyph unicode="&#xdb;" horiz-adv-x="1277" d="M102 535v882h201v-882q0 -176 84 -275.5t254 -99.5q162 0 249 103.5t87 273.5v880h199v-882q0 -250 -142.5 -406t-394.5 -156q-266 0 -401.5 150t-135.5 412zM319 1493l222 258h200l222 -258h-189l-133 139l-131 -139h-191z" />
<glyph unicode="&#xdc;" horiz-adv-x="1277" d="M102 535v882h201v-882q0 -176 84 -275.5t254 -99.5q162 0 249 103.5t87 273.5v880h199v-882q0 -250 -142.5 -406t-394.5 -156q-266 0 -401.5 150t-135.5 412zM326 1628q0 51 34.5 86t85.5 35q53 0 89 -35t36 -86t-36.5 -86t-88 -35t-86 35t-34.5 86zM709 1628 q0 51 34.5 86t85.5 35q53 0 89 -35t36 -86t-36.5 -86t-88 -35t-86 35t-34.5 86z" />
<glyph unicode="&#xdd;" horiz-adv-x="985" d="M-8 1417h225l281 -493l280 493h215l-401 -688v-729h-201v727zM399 1493l154 258h197l-160 -258h-191z" />
<glyph unicode="&#xde;" horiz-adv-x="942" d="M111 0v1417h200v-303h166q201 0 308.5 -99.5t107.5 -287.5q0 -186 -113.5 -291.5t-302.5 -105.5h-166v-330h-200zM311 508h156q106 0 161.5 58.5t55.5 160.5q0 100 -55.5 155.5t-161.5 55.5h-156v-430z" />
<glyph unicode="&#xdf;" horiz-adv-x="1036" d="M100 0v1122q0 170 90.5 278.5t288.5 108.5q182 0 277.5 -94t95.5 -244q0 -174 -137 -249q121 -51 195.5 -160t74.5 -273q0 -233 -145 -363q-141 -126 -365 -126h-14h-29v166h25q137 0 233 82t96 246q0 153 -94 233q-96 82 -233 82h-27v162h31q86 0 141 52t55 136 q0 86 -49 136.5t-135 50.5q-96 0 -138 -60.5t-42 -152.5v-1133h-195z" />
<glyph unicode="&#xe0;" horiz-adv-x="940" d="M53 350q0 158 103.5 259.5t267.5 101.5q150 0 227 -74v92q0 221 -194 221q-92 0 -136.5 -49t-46.5 -125h-182q2 150 95.5 241t271.5 91q385 0 385 -401v-707h-172v86q-88 -102 -248 -102t-265.5 100t-105.5 266zM207 1462h192l156 -276h-186zM242 350q0 -88 57 -147.5 t147 -59.5q88 0 148.5 59.5t60.5 147.5t-60 146.5t-150.5 58.5t-146.5 -58.5t-56 -146.5z" />
<glyph unicode="&#xe1;" horiz-adv-x="940" d="M53 350q0 158 103.5 259.5t267.5 101.5q150 0 227 -74v92q0 221 -194 221q-92 0 -136.5 -49t-46.5 -125h-182q2 150 95.5 241t271.5 91q385 0 385 -401v-707h-172v86q-88 -102 -248 -102t-265.5 100t-105.5 266zM242 350q0 -88 57 -147.5t147 -59.5q88 0 148.5 59.5 t60.5 147.5t-60 146.5t-150.5 58.5t-146.5 -58.5t-56 -146.5zM375 1186l160 276h192l-164 -276h-188z" />
<glyph unicode="&#xe2;" horiz-adv-x="940" d="M53 350q0 158 103.5 259.5t267.5 101.5q150 0 227 -74v92q0 221 -194 221q-92 0 -136.5 -49t-46.5 -125h-182q2 150 95.5 241t271.5 91q385 0 385 -401v-707h-172v86q-88 -102 -248 -102t-265.5 100t-105.5 266zM164 1178l207 286h194l209 -286h-178l-127 161l-127 -161 h-178zM242 350q0 -88 57 -147.5t147 -59.5q88 0 148.5 59.5t60.5 147.5t-60 146.5t-150.5 58.5t-146.5 -58.5t-56 -146.5z" />
<glyph unicode="&#xe3;" horiz-adv-x="940" d="M53 350q0 158 103.5 259.5t267.5 101.5q150 0 227 -74v92q0 221 -194 221q-92 0 -136.5 -49t-46.5 -125h-182q2 150 95.5 241t271.5 91q385 0 385 -401v-707h-172v86q-88 -102 -248 -102t-265.5 100t-105.5 266zM147 1194q-2 102 51.5 170t147.5 68q59 0 128 -44.5 t101 -44.5q61 0 62 89h143q2 -109 -50 -174.5t-144 -65.5q-57 0 -127 44t-105 44q-59 0 -63 -86h-144zM242 350q0 -88 57 -147.5t147 -59.5q88 0 148.5 59.5t60.5 147.5t-60 146.5t-150.5 58.5t-146.5 -58.5t-56 -146.5z" />
<glyph unicode="&#xe4;" horiz-adv-x="940" d="M53 350q0 158 103.5 259.5t267.5 101.5q150 0 227 -74v92q0 221 -194 221q-92 0 -136.5 -49t-46.5 -125h-182q2 150 95.5 241t271.5 91q385 0 385 -401v-707h-172v86q-88 -102 -248 -102t-265.5 100t-105.5 266zM162 1329q0 51 34.5 86t86.5 35q53 0 89 -35t36 -86 t-37 -86t-88.5 -35t-86 35t-34.5 86zM242 350q0 -88 57 -147.5t147 -59.5q88 0 148.5 59.5t60.5 147.5t-60 146.5t-150.5 58.5t-146.5 -58.5t-56 -146.5zM510 1329q0 51 36 86t87 35t87 -35t36 -86q0 -49 -37 -85t-86 -36q-51 0 -87 35t-36 86z" />
<glyph unicode="&#xe5;" horiz-adv-x="940" d="M53 350q0 158 103.5 259.5t267.5 101.5q150 0 227 -74v92q0 221 -194 221q-92 0 -136.5 -49t-46.5 -125h-182q2 150 95.5 241t271.5 91q385 0 385 -401v-707h-172v86q-88 -102 -248 -102t-265.5 100t-105.5 266zM242 350q0 -88 57 -147.5t147 -59.5q88 0 148.5 59.5 t60.5 147.5t-60 146.5t-150.5 58.5t-146.5 -58.5t-56 -146.5zM248 1356q0 90 59.5 148.5t149.5 58.5q98 0 156.5 -57.5t58.5 -145.5q0 -92 -58.5 -150.5t-154.5 -58.5q-92 0 -151.5 58.5t-59.5 146.5zM358 1356q0 -43 28 -72t73 -29q49 0 75.5 29t26.5 76q0 43 -27.5 71.5 t-74.5 28.5q-45 0 -73 -29.5t-28 -74.5z" />
<glyph unicode="&#xe6;" horiz-adv-x="1738" d="M53 344q0 158 102.5 258t268.5 100q147 0 223 -71v98q0 221 -188 221q-92 0 -135 -50t-43 -124h-183q2 147 94.5 239.5t268.5 92.5q242 0 315 -186q133 188 391 188q240 0 384.5 -144.5t148.5 -390.5q0 -31 -4 -88h-856q4 -143 99 -236t249 -93q229 0 336 221l149 -80 q-57 -137 -180 -225t-305 -88q-283 0 -428 196q-88 -201 -322 -200q-168 0 -276.5 99t-108.5 263zM240 348q0 -90 57 -148.5t149 -58.5q90 0 150.5 59.5t60.5 147.5q0 92 -59 150.5t-154 58.5q-92 0 -148 -59.5t-56 -149.5zM844 637h651q-6 141 -97 223t-233 82 q-137 0 -224 -88t-97 -217z" />
<glyph unicode="&#xe7;" horiz-adv-x="1042" d="M47 547q0 242 160 404.5t399 162.5q268 0 408 -176l-121 -123q-115 123 -285 123q-162 0 -262 -110.5t-100 -280.5q0 -172 104.5 -280.5t259.5 -108.5q160 0 289 125l115 -121q-152 -180 -406 -180h-26v-62q176 -35 176 -213q0 -106 -72 -164.5t-186 -58.5h-41v125h43 q113 0 112.5 98t-112.5 98h-43v193q-188 47 -300 194.5t-112 354.5z" />
<glyph unicode="&#xe8;" horiz-adv-x="1159" d="M49 545q0 250 149.5 409.5t385.5 159.5q242 0 388 -145.5t148 -390.5q0 -55 -4 -89h-866q10 -156 104.5 -244.5t249.5 -88.5q225 0 342 217l150 -78q-59 -137 -184.5 -225t-307.5 -88q-248 0 -401.5 153.5t-153.5 409.5zM256 647h661q-10 135 -101 217t-234 82 q-133 0 -220.5 -80t-105.5 -219zM342 1462h193l155 -276h-186z" />
<glyph unicode="&#xe9;" horiz-adv-x="1159" d="M49 545q0 250 149.5 409.5t385.5 159.5q242 0 388 -145.5t148 -390.5q0 -55 -4 -89h-866q10 -156 104.5 -244.5t249.5 -88.5q225 0 342 217l150 -78q-59 -137 -184.5 -225t-307.5 -88q-248 0 -401.5 153.5t-153.5 409.5zM256 647h661q-10 135 -101 217t-234 82 q-133 0 -220.5 -80t-105.5 -219zM492 1186l159 276h193l-164 -276h-188z" />
<glyph unicode="&#xea;" horiz-adv-x="1159" d="M49 545q0 250 149.5 409.5t385.5 159.5q242 0 388 -145.5t148 -390.5q0 -55 -4 -89h-866q10 -156 104.5 -244.5t249.5 -88.5q225 0 342 217l150 -78q-59 -137 -184.5 -225t-307.5 -88q-248 0 -401.5 153.5t-153.5 409.5zM256 647h661q-10 135 -101 217t-234 82 q-133 0 -220.5 -80t-105.5 -219zM279 1178l206 286h195l209 -286h-178l-127 161l-127 -161h-178z" />
<glyph unicode="&#xeb;" horiz-adv-x="1159" d="M49 545q0 250 149.5 409.5t385.5 159.5q242 0 388 -145.5t148 -390.5q0 -55 -4 -89h-866q10 -156 104.5 -244.5t249.5 -88.5q225 0 342 217l150 -78q-59 -137 -184.5 -225t-307.5 -88q-248 0 -401.5 153.5t-153.5 409.5zM256 647h661q-10 135 -101 217t-234 82 q-133 0 -220.5 -80t-105.5 -219zM287 1329q0 51 34.5 86t86.5 35q53 0 88.5 -35t35.5 -86t-36.5 -86t-88 -35t-86 35t-34.5 86zM635 1329q0 51 36 86t87 35t87 -35t36 -86q0 -49 -37 -85t-86 -36q-51 0 -87 35t-36 86z" />
<glyph unicode="&#xec;" horiz-adv-x="395" d="M-57 1462h192l156 -276h-187zM100 0v1096h195v-1096h-195z" />
<glyph unicode="&#xed;" horiz-adv-x="395" d="M100 0v1096h195v-1096h-195zM104 1186l160 276h193l-164 -276h-189z" />
<glyph unicode="&#xee;" horiz-adv-x="395" d="M-88 1178l188 286h193l190 -286h-174l-112 163l-111 -163h-174zM100 0v1096h195v-1096h-195z" />
<glyph unicode="&#xef;" horiz-adv-x="395" d="M-84 1329q0 51 36 86t87 35t87 -35t36 -86t-36 -86t-87 -35t-87 35t-36 86zM100 0v1096h195v-1096h-195zM236 1329q0 51 35.5 86t87 35t87 -35t35.5 -86q0 -49 -36.5 -85t-86.5 -36q-51 0 -86.5 35t-35.5 86z" />
<glyph unicode="&#xf0;" horiz-adv-x="1230" d="M49 543q0 252 160 403.5t395 151.5q35 0 68 -8l-115 124l-266 -79l-43 139l198 59l-151 164h225l107 -111l225 70l41 -141l-152 -45l199 -201q125 -127 184.5 -250t59.5 -268q0 -248 -161 -408.5t-405 -160.5q-248 0 -408.5 155.5t-160.5 405.5zM246 543 q0 -170 104.5 -278.5t266 -108.5t265 108.5t103.5 278.5t-104.5 280.5t-266 110.5t-265 -109.5t-103.5 -281.5z" />
<glyph unicode="&#xf1;" horiz-adv-x="980" d="M100 0v1096h195v-99q76 111 248 111q176 0 259 -105.5t83 -279.5v-723h-195v702q0 231 -194 232q-96 0 -148.5 -63.5t-52.5 -174.5v-696h-195zM172 1194q-2 102 51 170t148 68q59 0 127.5 -44.5t101.5 -44.5q61 0 62 89h143q2 -109 -50.5 -174.5t-144.5 -65.5 q-57 0 -126.5 44t-104.5 44q-59 0 -64 -86h-143z" />
<glyph unicode="&#xf2;" horiz-adv-x="1228" d="M49 547q0 248 161 407.5t404 159.5q248 0 407 -159.5t159 -405.5t-162 -406.5t-406 -160.5q-246 0 -404.5 157.5t-158.5 407.5zM246 547q0 -170 103.5 -279.5t265 -109.5t265 109.5t103.5 279.5t-103.5 280.5t-265.5 110.5q-164 0 -266 -109.5t-102 -281.5zM369 1462h192 l156 -276h-187z" />
<glyph unicode="&#xf3;" horiz-adv-x="1228" d="M49 547q0 248 161 407.5t404 159.5q248 0 407 -159.5t159 -405.5t-162 -406.5t-406 -160.5q-246 0 -404.5 157.5t-158.5 407.5zM246 547q0 -170 103.5 -279.5t265 -109.5t265 109.5t103.5 279.5t-103.5 280.5t-265.5 110.5q-164 0 -266 -109.5t-102 -281.5zM504 1186 l160 276h192l-164 -276h-188z" />
<glyph unicode="&#xf4;" horiz-adv-x="1228" d="M49 547q0 248 161 407.5t404 159.5q248 0 407 -159.5t159 -405.5t-162 -406.5t-406 -160.5q-246 0 -404.5 157.5t-158.5 407.5zM246 547q0 -170 103.5 -279.5t265 -109.5t265 109.5t103.5 279.5t-103.5 280.5t-265.5 110.5q-164 0 -266 -109.5t-102 -281.5zM307 1178 l207 286h195l209 -286h-179l-127 161l-127 -161h-178z" />
<glyph unicode="&#xf5;" horiz-adv-x="1228" d="M49 547q0 248 161 407.5t404 159.5q248 0 407 -159.5t159 -405.5t-162 -406.5t-406 -160.5q-246 0 -404.5 157.5t-158.5 407.5zM246 547q0 -170 103.5 -279.5t265 -109.5t265 109.5t103.5 279.5t-103.5 280.5t-265.5 110.5q-164 0 -266 -109.5t-102 -281.5zM297 1194 q-2 102 51 170t148 68q59 0 127.5 -44.5t101.5 -44.5q61 0 61 89h144q2 -109 -50.5 -174.5t-144.5 -65.5q-57 0 -126.5 44t-104.5 44q-59 0 -64 -86h-143z" />
<glyph unicode="&#xf6;" horiz-adv-x="1228" d="M49 547q0 248 161 407.5t404 159.5q248 0 407 -159.5t159 -405.5t-162 -406.5t-406 -160.5q-246 0 -404.5 157.5t-158.5 407.5zM246 547q0 -170 103.5 -279.5t265 -109.5t265 109.5t103.5 279.5t-103.5 280.5t-265.5 110.5q-164 0 -266 -109.5t-102 -281.5zM315 1329 q0 51 35 86t86 35q53 0 89 -35t36 -86t-37 -86t-88 -35t-86 35t-35 86zM664 1329q0 51 35.5 86t87 35t87 -35t35.5 -86q0 -49 -36.5 -85t-86.5 -36q-51 0 -86.5 35t-35.5 86z" />
<glyph unicode="&#xf7;" horiz-adv-x="946" d="M49 608v164h850v-164h-850zM344 342q0 53 37 91t92 38t91 -37t36 -92q0 -53 -37 -91t-90 -38t-91 38t-38 91zM344 1030q0 53 37 90t92 37t91 -37t36 -90q0 -55 -37 -92t-90 -37t-91 37t-38 92z" />
<glyph unicode="&#xf8;" horiz-adv-x="1228" d="M49 547q0 248 161 407.5t404 159.5q174 0 312 -90l84 98l114 -98l-82 -96q137 -158 138 -379q0 -246 -162 -406.5t-406 -160.5q-184 0 -309 86l-84 -97l-113 95l82 96q-139 152 -139 385zM242 547q0 -141 69 -242l500 584q-90 55 -197 55q-166 0 -269 -111.5t-103 -285.5 zM418 203q82 -51 196 -51q166 0 269.5 110.5t103.5 284.5q0 135 -67 237z" />
<glyph unicode="&#xf9;" horiz-adv-x="972" d="M94 373v723h195v-701q0 -231 190 -231q94 0 146.5 64.5t52.5 172.5v695h196v-1096h-194v100q-72 -113 -246 -112.5t-257 106t-83 279.5zM254 1462h192l156 -276h-186z" />
<glyph unicode="&#xfa;" horiz-adv-x="972" d="M94 373v723h195v-701q0 -231 190 -231q94 0 146.5 64.5t52.5 172.5v695h196v-1096h-194v100q-72 -113 -246 -112.5t-257 106t-83 279.5zM383 1186l160 276h192l-164 -276h-188z" />
<glyph unicode="&#xfb;" horiz-adv-x="972" d="M94 373v723h195v-701q0 -231 190 -231q94 0 146.5 64.5t52.5 172.5v695h196v-1096h-194v100q-72 -113 -246 -112.5t-257 106t-83 279.5zM180 1178l207 286h195l209 -286h-179l-127 161l-127 -161h-178z" />
<glyph unicode="&#xfc;" horiz-adv-x="972" d="M94 373v723h195v-701q0 -231 190 -231q94 0 146.5 64.5t52.5 172.5v695h196v-1096h-194v100q-72 -113 -246 -112.5t-257 106t-83 279.5zM186 1329q0 51 35 86t86 35q53 0 89 -35t36 -86t-37 -86t-88 -35t-86 35t-35 86zM535 1329q0 51 35.5 86t87 35t87 -35t35.5 -86 q0 -49 -36.5 -85t-86.5 -36q-51 0 -86.5 35t-35.5 86z" />
<glyph unicode="&#xfd;" horiz-adv-x="1048" d="M-4 1096h215l328 -815l311 815h203l-570 -1454h-190l145 378zM430 1186l160 276h192l-164 -276h-188z" />
<glyph unicode="&#xfe;" horiz-adv-x="1271" d="M100 -360v1857h195v-553q55 72 153.5 121t225.5 49q246 0 397.5 -156.5t151.5 -408.5q0 -244 -155 -405.5t-406 -161.5q-127 0 -222.5 49t-144.5 108v-499h-195zM287 547q0 -172 103.5 -281.5t267 -109.5t266 109.5t102.5 281.5t-103.5 282.5t-267 110.5t-266 -110.5 t-102.5 -282.5z" />
<glyph unicode="&#xff;" horiz-adv-x="1048" d="M-4 1096h215l328 -815l311 815h203l-570 -1454h-190l145 378zM240 1329q0 51 34.5 86t85.5 35q53 0 89 -35t36 -86t-36.5 -86t-88 -35t-86 35t-34.5 86zM588 1329q0 51 35.5 86t87 35t87.5 -35t36 -86q0 -49 -37 -85t-86 -36q-51 0 -87 35t-36 86z" />
<glyph unicode="&#x152;" horiz-adv-x="1468" d="M53 711q0 317 196.5 511.5t530.5 194.5h611v-186h-416v-410h405v-184h-405v-451h422v-186h-615q-336 0 -532.5 196t-196.5 515zM266 708.5q0 -243.5 134.5 -383t373.5 -139.5v1045q-242 0 -375 -139.5t-133 -383z" />
<glyph unicode="&#x153;" horiz-adv-x="2086" d="M49 547q0 248 161 407.5t404 159.5q150 0 272 -66.5t193 -183.5q68 115 180.5 180.5t253.5 65.5q240 0 384.5 -144.5t148.5 -390.5q0 -31 -4 -88h-856q4 -143 99 -236t249 -93q229 0 334 221l151 -80q-57 -137 -180 -225t-305 -88q-152 0 -270.5 63.5t-188.5 179.5 q-74 -117 -195.5 -182t-267.5 -65q-246 0 -404.5 157.5t-158.5 407.5zM246 547q0 -170 103.5 -279.5t265 -109.5t265 109.5t103.5 279.5q0 172 -104.5 281.5t-264.5 109.5q-164 0 -266 -109.5t-102 -281.5zM1190 637h651q-6 139 -97 222t-233 83q-137 0 -224 -88t-97 -217z " />
<glyph unicode="&#x178;" horiz-adv-x="985" d="M-8 1417h225l281 -493l280 493h215l-401 -688v-729h-201v727zM182 1628q0 51 35 86t86 35q53 0 89 -35t36 -86t-37 -86t-88 -35t-86 35t-35 86zM565 1628q0 51 35 86t86 35q53 0 89 -35t36 -86t-37 -86t-88 -35t-86 35t-35 86z" />
<glyph unicode="&#x2c6;" horiz-adv-x="819" d="M104 1178l207 286h195l209 -286h-178l-127 161l-127 -161h-179z" />
<glyph unicode="&#x2dc;" horiz-adv-x="819" d="M90 1194q-2 102 51.5 170t147.5 68q59 0 127.5 -44.5t101.5 -44.5q61 0 62 89h143q2 -109 -50 -174.5t-145 -65.5q-57 0 -126.5 44t-104.5 44q-59 0 -64 -86h-143z" />
<glyph unicode="&#x2000;" horiz-adv-x="941" />
<glyph unicode="&#x2001;" horiz-adv-x="1882" />
<glyph unicode="&#x2002;" horiz-adv-x="941" />
<glyph unicode="&#x2003;" horiz-adv-x="1882" />
<glyph unicode="&#x2004;" horiz-adv-x="627" />
<glyph unicode="&#x2005;" horiz-adv-x="470" />
<glyph unicode="&#x2006;" horiz-adv-x="313" />
<glyph unicode="&#x2007;" horiz-adv-x="313" />
<glyph unicode="&#x2008;" horiz-adv-x="235" />
<glyph unicode="&#x2009;" horiz-adv-x="376" />
<glyph unicode="&#x200a;" horiz-adv-x="104" />
<glyph unicode="&#x2010;" horiz-adv-x="577" d="M74 494v184h432v-184h-432z" />
<glyph unicode="&#x2011;" horiz-adv-x="577" d="M74 494v184h432v-184h-432z" />
<glyph unicode="&#x2012;" horiz-adv-x="577" d="M74 494v184h432v-184h-432z" />
<glyph unicode="&#x2013;" horiz-adv-x="1239" d="M74 500v164h1091v-164h-1091z" />
<glyph unicode="&#x2014;" horiz-adv-x="1918" d="M74 500v164h1771v-164h-1771z" />
<glyph unicode="&#x2018;" horiz-adv-x="366" d="M49 1081q0 47 37 136l88 200h137l-92 -211q98 -27 98 -125q0 -59 -36.5 -97t-96 -38t-97.5 38t-38 97z" />
<glyph unicode="&#x2019;" horiz-adv-x="366" d="M47 1296q0 59 38 97.5t97.5 38.5t97 -38t37.5 -98q0 -51 -38 -135l-86 -200h-138l92 213q-100 28 -100 122z" />
<glyph unicode="&#x201a;" horiz-adv-x="366" d="M47 131q0 59 38 97t97.5 38t97 -39t37.5 -96q0 -51 -38 -135l-86 -201h-138l92 213q-100 29 -100 123z" />
<glyph unicode="&#x201c;" horiz-adv-x="700" d="M49 1081q0 47 37 136l88 200h137l-92 -211q98 -27 98 -125q0 -59 -36.5 -97t-96 -38t-97.5 38t-38 97zM383 1081q0 47 37 136l88 200h137l-92 -211q98 -27 98 -125q0 -59 -36.5 -97t-96 -38t-97.5 38t-38 97z" />
<glyph unicode="&#x201d;" horiz-adv-x="700" d="M47 1296q0 59 38 97.5t97.5 38.5t97 -38t37.5 -98q0 -51 -38 -135l-86 -200h-138l92 213q-100 28 -100 122zM381 1296q0 59 38 97.5t97 38.5q57 0 96 -38t39 -98q0 -51 -39 -135l-86 -200h-137l92 213q-100 28 -100 122z" />
<glyph unicode="&#x201e;" horiz-adv-x="704" d="M47 131q0 59 38 97t97.5 38t97 -39t37.5 -96q0 -51 -38 -135l-86 -201h-138l92 213q-100 29 -100 123zM385 131q0 59 38 97t97 38q57 0 96 -39t39 -96q0 -51 -39 -135l-86 -201h-137l92 213q-100 29 -100 123z" />
<glyph unicode="&#x2022;" horiz-adv-x="585" d="M51 608q0 102 68.5 172t171 70t173.5 -69.5t71 -172.5q0 -100 -71 -169.5t-173.5 -69.5t-171 69.5t-68.5 169.5z" />
<glyph unicode="&#x2026;" horiz-adv-x="1167" d="M51 119q0 59 39 98t96 39q59 0 98.5 -40t39.5 -97.5t-39 -97t-99 -39.5q-57 0 -96 40t-39 97zM446 119q0 59 39 98t96.5 39t97.5 -40t40 -97.5t-40 -97t-97.5 -39.5t-96.5 40t-39 97zM844 119q0 59 39 98t96 39t97 -40t40 -97.5t-40 -97t-97 -39.5t-96 40t-39 97z" />
<glyph unicode="&#x202f;" horiz-adv-x="376" />
<glyph unicode="&#x2039;" horiz-adv-x="409" d="M33 549l170 336h174l-172 -336l170 -334h-172z" />
<glyph unicode="&#x203a;" horiz-adv-x="409" d="M33 215l172 336l-172 334h172l172 -334l-172 -336h-172z" />
<glyph unicode="&#x205f;" horiz-adv-x="470" />
<glyph unicode="&#x20ac;" horiz-adv-x="1337" d="M35 473v154h100q-4 53 -4 82q0 31 4 92h-100v153h131q68 221 250 353.5t430 132.5q279 0 450 -160l-120 -143q-135 121 -334 120q-260 0 -396 -186q-37 -55 -61 -117h498v-153h-537q-4 -61 -4 -92q0 -55 4 -82h537v-154h-498q29 -76 86 -147q135 -164 381 -164 q190 0 342 135l117 -133q-180 -184 -461 -184q-256 0 -438.5 134t-249.5 359h-127z" />
<glyph unicode="&#x2122;" horiz-adv-x="1243" d="M49 1294v123h365v-123h-115v-454h-135v454h-115zM487 840v577h191l166 -420l164 420h186v-577h-129v403l-158 -403h-135l-162 401v-401h-123z" />
<glyph unicode="&#xe000;" horiz-adv-x="1095" d="M0 1095h1095v-1095h-1095v1095z" />
<glyph unicode="&#xfb01;" horiz-adv-x="923" d="M23 930v166h110v69q0 332 316 332h57v-166h-39q-80 0 -109.5 -43t-29.5 -123v-69h174v-166h-174v-930h-195v930h-110zM596 1331q0 55 38 92t91 37t91 -37t38 -92q0 -53 -38 -91t-91 -38t-91 38t-38 91zM629 0v1096h196v-1096h-196z" />
<glyph unicode="&#xfb02;" horiz-adv-x="923" d="M23 930v166h110v69q0 332 316 332h57v-166h-39q-80 0 -109.5 -43t-29.5 -123v-69h174v-166h-174v-930h-195v930h-110zM629 0v1497h196v-1497h-196z" />
<glyph unicode="&#xfb03;" horiz-adv-x="1484" d="M23 930v166h110v69q0 332 316 332h71v-166h-53q-80 0 -109.5 -43t-29.5 -123v-69h188v-166h-188v-930h-195v930h-110zM567 930v166h111v69q0 332 315 332h72v-166h-53q-80 0 -110 -43t-30 -123v-69h189v-166h-189v-930h-194v930h-111zM1157 1331q0 55 38 92t91 37 q55 0 93 -37t38 -92q0 -53 -39 -91t-92 -38t-91 38t-38 91zM1190 0v1096h194v-1096h-194z" />
<glyph unicode="&#xfb04;" horiz-adv-x="1484" d="M23 930v166h110v69q0 332 316 332h71v-166h-53q-80 0 -109.5 -43t-29.5 -123v-69h188v-166h-188v-930h-195v930h-110zM567 930v166h111v69q0 332 315 332h72v-166h-53q-80 0 -110 -43t-30 -123v-69h189v-166h-189v-930h-194v930h-111zM1190 0v1497h194v-1497h-194z" />
</font>
</defs>
</svg>
