<?xml version="1.0" standalone="no"?>
<!DOCTYPE svg PUBLIC "-//W3C//DTD SVG 1.1//EN" "http://www.w3.org/Graphics/SVG/1.1/DTD/svg11.dtd" >
<svg xmlns="http://www.w3.org/2000/svg">
<metadata>
This is a custom SVG webfont generated by Font Squirrel.
Copyright   : Copyright  2010 Berton Hasebe under exclusive license to Schwartzco Inc dba Commercial Type
</metadata>
<defs>
<font id="PlatformMedium" horiz-adv-x="1564" >
<font-face units-per-em="2048" ascent="1690" descent="-358" />
<missing-glyph horiz-adv-x="309" />
<glyph unicode=" "  horiz-adv-x="309" />
<glyph unicode="&#x09;" horiz-adv-x="309" />
<glyph unicode="&#xa0;" horiz-adv-x="309" />
<glyph unicode="!" horiz-adv-x="483" d="M68 153.5q0 71.5 52 122t123.5 50.5t121 -50.5t49.5 -122t-50.5 -122.5t-119.5 -51q-72 0 -124 51t-52 122.5zM102 389v1028l279 -2v-1026h-279z" />
<glyph unicode="&#x22;" horiz-adv-x="733" d="M63 893v524h250v-524h-250zM420 893v524h250v-524h-250z" />
<glyph unicode="#" horiz-adv-x="1251" d="M33 352v223h215l76 310h-164v223h217l76 309h245l-75 -309h192l76 309h246l-76 -309h156v-223h-211l-76 -310h162v-223h-215l-86 -352h-242l84 352h-195l-86 -352h-243l86 352h-162zM492 575h196l74 310h-195z" />
<glyph unicode="$" horiz-adv-x="1019" d="M49 419v17h244v-11q0 -185 137 -222v420l-104 45q-127 61 -192.5 154t-65.5 238.5t98 251t264 126.5v118h158v-118q180 -23 262 -136q76 -106 76 -259v-23h-228q0 150 -110 194v-370q37 -12 102 -45q137 -63 209 -159.5t72 -250.5q0 -166 -104.5 -276.5t-278.5 -132.5 v-121h-158v118q-109 10 -187.5 54.5t-119.5 111t-58 139.5q-16 65 -16 137zM317 1071q0 -57 28 -92t85 -66v308q-113 -31 -113 -150zM588 205q125 37 125 168q0 63 -31 101t-94 75v-344z" />
<glyph unicode="%" horiz-adv-x="1626" d="M37 1083q0 150 98 249.5t252 99.5q162 0 261.5 -98.5t99.5 -250.5q0 -150 -99.5 -249t-257.5 -99q-160 0 -257 98t-97 250zM174 0l1051 1417h235l-1048 -1417h-238zM250 1083.5q0 -63.5 39 -105.5t102 -42q68 0 106 42t38 105q0 66 -40 108t-105.5 42t-102.5 -43 t-37 -106.5zM879 333.5q0 151.5 98 251t254 99.5q160 0 260 -99.5t100 -250.5q0 -147 -99 -246.5t-257 -99.5q-160 0 -258 97t-98 248.5zM1094 335.5q0 -63.5 38.5 -106.5t102.5 -43q68 0 104.5 42t36.5 107.5t-39 106.5t-104.5 41t-102 -42t-36.5 -105.5z" />
<glyph unicode="&#x26;" horiz-adv-x="1359" d="M41 416q0 127 59.5 227t167.5 156q-113 106 -112.5 266t113 267.5t300.5 107.5q197 0 308.5 -104.5t111.5 -270.5q0 -139 -80 -231.5t-200 -110.5l231 -238q38 109 38 238q0 18 -1 37h266l2 -60q0 -250 -110 -424l266 -276h-344l-90 92q-158 -115 -373 -115 q-256 0 -404.5 123t-148.5 316zM332 453q0 -100 74.5 -164t193.5 -64q109 0 184 51l-354 361q-98 -59 -98 -184zM418 1056.5q0 -67.5 46 -112.5t114 -45q70 0 113.5 45t43.5 117q-2 68 -47 110.5t-115 42.5q-68 0 -111.5 -45t-43.5 -112.5z" />
<glyph unicode="'" horiz-adv-x="376" d="M63 893v524h250v-524h-250z" />
<glyph unicode="(" horiz-adv-x="548" d="M82 57v1157q0 416 418 416h16v-244h-14q-90 0 -125 -43t-35 -126v-1162q0 -86 35 -129t125 -43h14v-241h-16q-418 -1 -418 415z" />
<glyph unicode=")" horiz-adv-x="548" d="M33 -117h14q90 0 125 43t35 129v1162q0 84 -35 126.5t-125 42.5h-14v244h16q418 0 418 -416v-1157q0 -416 -418 -415h-16v241z" />
<glyph unicode="*" horiz-adv-x="827" d="M57 954l172 101l-172 100l93 160l172 -101v203h184v-203l172 101l90 -158l-172 -100l174 -101l-92 -159l-172 102v-205h-184v205l-172 -102z" />
<glyph unicode="+" horiz-adv-x="962" d="M55 575v230h303v313h246v-313h301v-230h-301v-315h-246v315h-303z" />
<glyph unicode="," horiz-adv-x="425" d="M39 161q0 70 48 119q50 50 128 50q76 0 124 -50.5t48 -125.5q0 -66 -43 -158l-108 -223h-189l113 223q-53 14 -86 57q-35 46 -35 108z" />
<glyph unicode="-" horiz-adv-x="626" d="M63 457v258h500v-258h-500z" />
<glyph unicode="." horiz-adv-x="425" d="M39 154q0 76 49 126t125 50t125 -50.5t49 -125.5q0 -74 -50 -125.5t-124 -51.5t-124 51.5t-50 125.5z" />
<glyph unicode="/" horiz-adv-x="950" d="M-4 -358l706 1855h252l-706 -1855h-252z" />
<glyph unicode="0" horiz-adv-x="1079" d="M82 446v529q0 219 115.5 344t343.5 125q219 0 338.5 -127t119.5 -342v-529q0 -217 -121.5 -345t-340.5 -128q-229 0 -342 125t-113 348zM367 442q0 -199 174 -198q86 0 130 54t44 144v533q0 90 -44 145.5t-130 55.5q-174 0 -174 -201v-533z" />
<glyph unicode="1" horiz-adv-x="534" d="M25 1081v269l153 67h264v-1417h-284v1130z" />
<glyph unicode="2" horiz-adv-x="1013" d="M57 0v250l455 475q76 78 111.5 140.5t35.5 135.5q0 80 -43 127.5t-120 47.5q-86 0 -122 -54.5t-36 -124.5h-281v19q0 52 10 102q11 59 41.5 119.5t79 106t128 73t180.5 27.5q221 0 339.5 -120t118.5 -308q0 -133 -53 -230.5t-162 -205.5l-311 -324h537v-256h-908z" />
<glyph unicode="3" horiz-adv-x="1017" d="M35 422h280q4 -80 50.5 -131t134.5 -51q82 0 131 52t49 134q0 88 -51 137t-146 49h-188v222l285 327h-494v256h823v-254l-293 -315q160 -20 258.5 -121.5t98.5 -294.5q0 -205 -131 -332t-342 -127q-129 0 -224.5 40t-145.5 107.5t-72.5 142.5t-22.5 159z" />
<glyph unicode="4" horiz-adv-x="1101" d="M27 403v236l606 778h280v-768h152v-246h-152v-403h-278v403h-608zM319 649h316v402z" />
<glyph unicode="5" horiz-adv-x="1032" d="M72 422h280q10 -178 172 -178q86 0 131 55t45 147v41q0 197 -172 197q-115 0 -155 -88h-277v821h805v-256h-530v-280q27 27 86 48t135 21q389 0 389 -454v-52q0 -205 -115.5 -338t-341.5 -133q-233 0 -342.5 123t-109.5 326z" />
<glyph unicode="6" horiz-adv-x="1054" d="M82 440v488q0 229 121 372.5t379 143.5q233 0 366 -133l-157 -211q-90 76 -199 76q-231 0 -227 -242v-57q27 31 90 57.5t145 26.5q397 0 397 -461v-62q0 -203 -120.5 -334t-339.5 -131q-227 0 -341 124t-114 343zM365 438q0 -90 42 -144t132 -54q88 0 132 55t44 143v64 q0 195 -174 194q-90 0 -133 -52t-43 -138v-68z" />
<glyph unicode="7" horiz-adv-x="956" d="M33 1161v256h876v-186l-463 -1231h-317l444 1161h-540z" />
<glyph unicode="8" horiz-adv-x="1040" d="M43 403q0 219 174 328q-150 106 -149 305q0 168 116.5 288t335.5 120q221 0 338 -119t117 -289q0 -203 -152 -305q176 -106 176 -328q0 -180 -124.5 -305t-352.5 -125q-233 0 -356 123t-123 307zM336 414q0 -82 52 -134.5t134 -52.5q84 0 135.5 52.5t51.5 134.5 t-52.5 134t-134.5 52q-84 0 -135 -52t-51 -134zM352 1024q0 -76 47 -123t123 -47t122 47t46 123t-47 123t-123 47t-122 -47t-46 -123z" />
<glyph unicode="9" horiz-adv-x="1052" d="M57 918v61q0 205 119 335t336 130q229 0 345 -124t116 -341v-487q0 -238 -119 -378.5t-375 -140.5q-231 0 -375 129l156 217q104 -78 213 -77q215 0 215 225v16v58q-23 -31 -84 -57.5t-137 -26.5q-410 0 -410 461zM338 918q0 -197 176 -197q88 0 131 52t45 138v68 q0 90 -44 144.5t-134 54.5q-88 0 -131 -54.5t-43 -144.5v-61z" />
<glyph unicode=":" horiz-adv-x="425" d="M39 154q0 76 49 126t125 50t125 -50.5t49 -125.5q0 -74 -50 -125.5t-124 -51.5t-124 51.5t-50 125.5zM39 868q0 76 49 126t125 50t125 -50t49 -126q0 -74 -50 -125t-124 -51t-124 51t-50 125z" />
<glyph unicode=";" horiz-adv-x="425" d="M39 161q0 70 48 119q50 50 128 50q76 0 124 -50.5t48 -125.5q0 -66 -43 -158l-108 -223h-189l113 223q-53 14 -86 57q-35 46 -35 108zM39 868q0 76 49 126t125 50t125 -50t49 -126q0 -74 -50 -125t-124 -51t-124 51t-50 125z" />
<glyph unicode="&#x3c;" horiz-adv-x="854" d="M55 571v236l742 330v-244l-478 -199l478 -198v-246z" />
<glyph unicode="=" horiz-adv-x="970" d="M61 399v219h850v-219h-850zM61 739v219h850v-219h-850z" />
<glyph unicode="&#x3e;" horiz-adv-x="839" d="M57 250v246l463 198l-463 199v244l727 -330v-236z" />
<glyph unicode="?" horiz-adv-x="968" d="M41 1010v13q0 55 14 114q16 66 58.5 137.5t138.5 117.5t231 46q209 0 326 -114t117 -290q0 -156 -92.5 -256t-235.5 -110v-279h-272v479h149q80 0 127 42t47 122q0 74 -46 121t-120 47q-92 0 -129 -58.5t-37 -131.5h-276zM289 154q0 72 51 122t123 50t122 -50.5 t50 -121.5q0 -74 -50 -124t-122 -50t-123 50t-51 124z" />
<glyph unicode="@" horiz-adv-x="1955" d="M47 578q0 412 266.5 671.5t685.5 259.5q424 0 668 -227t244 -582q0 -250 -118 -400t-306 -150q-176 0 -238 124q-43 -53 -119.5 -90t-164.5 -37q-201 0 -323 122t-122 313q0 182 121 309t305 127q145 0 219 -74v64h240v-527q0 -125 108 -125q76 0 122 92.5t46 237.5 q0 295 -182 458t-505.5 163t-517 -207t-193.5 -512q0 -324 209.5 -518.5t549.5 -194.5q295 0 502 178l125 -151q-100 -102 -267 -168t-364 -66q-453 0 -722 258.5t-269 651.5zM774 584q0 -88 52.5 -144.5t138.5 -56.5q88 0 141 55.5t53 145.5t-54 146t-140 56t-138.5 -57 t-52.5 -145z" />
<glyph unicode="A" horiz-adv-x="1327" d="M-10 0l512 1417h299l536 -1417h-301l-141 389h-485l-140 -389h-280zM498 631h309l-156 426z" />
<glyph unicode="B" horiz-adv-x="1030" d="M94 0v1417h436q207 0 315.5 -100t108.5 -283q0 -94 -41 -172t-108 -114q182 -88 182 -332q0 -193 -116.5 -304.5t-311.5 -111.5h-465zM375 248h143q84 0 130 49t46 131q0 84 -46 130t-130 46h-143v-356zM375 846h131q76 0 117 43t41 121q0 161 -156 161h-2h-131v-325z " />
<glyph unicode="C" horiz-adv-x="1284" d="M45 707q0 317 205 527t532 210q285 0 471 -166l-168 -213q-131 115 -301 115q-201 0 -320.5 -133.5t-119.5 -337.5q0 -203 124 -336t320 -133q166 0 304 118l165 -198q-190 -186 -469 -187q-336 0 -539.5 207.5t-203.5 526.5z" />
<glyph unicode="D" horiz-adv-x="1171" d="M94 0v1417h287q348 0 545.5 -188.5t197.5 -517.5q0 -328 -198.5 -519.5t-544.5 -191.5h-287zM379 252h16h7q198 0 311 118q114 119 114 337q0 223 -113 342q-111 116 -309 116h-3h-7h-16v-913z" />
<glyph unicode="E" horiz-adv-x="815" d="M94 0v1417h649v-266h-364v-295h354v-262h-354v-328h371v-266h-656z" />
<glyph unicode="F" horiz-adv-x="811" d="M94 0v1417h656v-266h-371v-295h360v-262h-360v-594h-285z" />
<glyph unicode="G" horiz-adv-x="1488" d="M45 711q0 309 204 521t525 212q399 0 582 -281l-221 -164q-133 180 -361 181q-193 0 -312.5 -131t-119.5 -338q0 -213 125 -343t319 -130q217 0 338 124v162h-231v238h510v-762h-275v84q-135 -109 -354 -109q-326 0 -527.5 203t-201.5 533z" />
<glyph unicode="H" horiz-adv-x="1323" d="M94 0v1417h285v-555h565v555h285v-1417h-285v592h-565v-592h-285z" />
<glyph unicode="I" horiz-adv-x="473" d="M94 0v1417h285v-1417h-285z" />
<glyph unicode="J" horiz-adv-x="589" d="M37 0v262h80q96 0 96 109v1046h285v-1077q0 -168 -74 -255t-266 -87q-86 0 -121 2z" />
<glyph unicode="K" horiz-adv-x="1142" d="M94 0v1417h285v-579l438 579h330l-529 -678l537 -739h-334l-442 608v-608h-285z" />
<glyph unicode="L" horiz-adv-x="778" d="M94 0v1417h285v-1151h358v-266h-643z" />
<glyph unicode="M" horiz-adv-x="1775" d="M94 0v1417h424l375 -1046l375 1046h413v-1417h-274v1059l-389 -1059h-273l-389 1059v-1059h-262z" />
<glyph unicode="N" horiz-adv-x="1368" d="M94 0v1417h295l608 -950v950h277v-1417h-283l-620 934v-934h-277z" />
<glyph unicode="O" d="M45 707q0 315 206 526t525 211q334 0 539 -208t205 -525.5t-205 -527.5t-533 -210q-334 0 -535.5 207.5t-201.5 526.5zM344 708.5q0 -204.5 121 -336.5t317 -132q201 0 320 131t119 338q0 205 -121 338t-320 133q-201 0 -318.5 -133.5t-117.5 -338z" />
<glyph unicode="P" horiz-adv-x="991" d="M94 0v1417h438q211 0 323 -105.5t112 -301.5q0 -190 -119 -303t-316 -113h-155v-594h-283zM377 840h133q78 0 120 46t42 121.5t-42 119.5t-120 44h-133v-331z" />
<glyph unicode="Q" d="M45 707q0 315 206 526t525 211q334 0 539 -208t205 -525q0 -233 -125 -420l118 -103l-176 -206l-135 116q-182 -125 -420 -125q-334 0 -535.5 207.5t-201.5 526.5zM340 709q0 -207 123 -341.5t319 -134.5q117 0 211 48l-112 98l174 207l123 -109q47 104 47 232 q0 207 -122 341t-323 134q-203 0 -321.5 -133t-118.5 -342z" />
<glyph unicode="R" horiz-adv-x="1087" d="M94 0v1417h438q211 0 323 -105.5t112 -301.5q0 -246 -197 -351l336 -659h-305l-301 606h-123v-606h-283zM377 840h133q78 0 120 46t42 121.5t-42 119.5t-120 44h-133v-331z" />
<glyph unicode="S" horiz-adv-x="1019" d="M48 397q0 19 1 39h270v-8q1 -90 43 -148q44 -62 142 -61q78 0 126 43t48 121q0 119 -152 182l-109 45q-89 37 -136 64q-211 111 -211 370q0 176 118.5 288t315.5 112q225 0 327 -118q95 -109 95 -279v-27h-262q0 80 -42 130t-118 50q-72 0 -112 -40t-40 -101 q0 -106 133 -162q23 -10 95.5 -39t117.5 -49q272 -121 273 -395q0 -201 -129 -321t-338 -120q-109 0 -192 28t-133 72t-81.5 106.5t-42.5 124.5q-7 45 -7 93z" />
<glyph unicode="T" horiz-adv-x="870" d="M35 1151v266h801v-266h-258v-1151h-285v1151h-258z" />
<glyph unicode="U" horiz-adv-x="1302" d="M86 553v864h285v-864q0 -145 70.5 -229t211.5 -84q135 0 207 86t72 229v862h285v-862q0 -260 -148.5 -421t-419.5 -161q-281 0 -422 155t-141 425z" />
<glyph unicode="V" horiz-adv-x="1353" d="M-10 1417h319l375 -1059l377 1059h303l-535 -1417h-307z" />
<glyph unicode="W" horiz-adv-x="2025" d="M-4 1417h311l277 -1038l286 1038h306l286 -1038l275 1038h293l-402 -1417h-328l-284 983l-287 -983h-321z" />
<glyph unicode="X" horiz-adv-x="1286" d="M-10 0l483 733l-461 684h346l293 -438l287 438h334l-457 -690l481 -727h-329l-330 487l-330 -487h-317z" />
<glyph unicode="Y" horiz-adv-x="1044" d="M-18 1417h317l229 -430l234 430h301l-401 -704v-713h-285v709z" />
<glyph unicode="Z" horiz-adv-x="1191" d="M53 0v193l682 962h-674v262h1074v-192l-691 -965h695v-260h-1086z" />
<glyph unicode="[" horiz-adv-x="548" d="M82 -358v1988h434v-244h-174v-1501h174v-243h-434z" />
<glyph unicode="\" horiz-adv-x="950" d="M-4 1497h254l704 -1855h-252z" />
<glyph unicode="]" horiz-adv-x="548" d="M33 -115h174v1501h-174v244h434v-1988h-434v243z" />
<glyph unicode="^" horiz-adv-x="1009" d="M29 788l338 629h278l336 -629h-281l-196 369l-199 -369h-276z" />
<glyph unicode="_" horiz-adv-x="1267" d="M61 -63h1145v-220h-1145v220z" />
<glyph unicode="`" horiz-adv-x="974" d="M209 1454h268l156 -283h-258z" />
<glyph unicode="a" horiz-adv-x="960" d="M43 358q0 156 104.5 258.5t272.5 102.5q125 0 194 -45v55q0 162 -143 162q-70 0 -101.5 -37t-31.5 -90h-256q4 160 102.5 252t286.5 92q223 0 318.5 -109.5t95.5 -308.5v-690h-230v70q-78 -84 -231 -84q-166 0 -273.5 102t-107.5 270zM301 360q0 -70 45 -113.5t115 -43.5 q68 0 112.5 44t44.5 113.5t-45 112.5t-114.5 43t-113.5 -44t-44 -112z" />
<glyph unicode="b" horiz-adv-x="1263" d="M80 0v1497h274v-510q49 53 136.5 90t191.5 37q246 0 394.5 -155.5t148.5 -409.5q0 -246 -156 -406.5t-405 -160.5q-100 0 -186.5 35.5t-137.5 86.5v-104h-260zM346 549q0 -141 84 -231.5t219 -90.5q137 0 219 90.5t82 231.5t-84 231t-219 90q-137 0 -219 -90t-82 -231z " />
<glyph unicode="c" horiz-adv-x="999" d="M39 545q0 242 160.5 405.5t404.5 163.5q242 0 385 -147l-158 -191q-94 90 -225 90q-133 0 -213 -90t-80 -229q0 -143 86 -230.5t209 -87.5q121 0 230 90l151 -184q-144 -153 -380 -153h-3q-256 0 -411.5 159.5t-155.5 403.5z" />
<glyph unicode="d" horiz-adv-x="1263" d="M39 545q0 242 155.5 405.5t399.5 163.5q199 0 315 -106v489h275v-1497h-256v109q-51 -55 -137 -91t-187 -36q-254 0 -409.5 156.5t-155.5 406.5zM313 549q0 -139 85 -230.5t218 -91.5q135 0 218.5 91.5t83.5 230.5t-84 230t-218 91q-135 0 -219 -91t-84 -230z" />
<glyph unicode="e" horiz-adv-x="1146" d="M39 545q0 248 150.5 408.5t388.5 160.5q246 0 391 -147.5t145 -395.5q0 -66 -4 -112h-782q10 -109 82.5 -171.5t189.5 -62.5q172 0 277 164l202 -123q-57 -121 -177 -202.5t-302 -81.5q-252 0 -406.5 152.5t-154.5 410.5zM334 666h495q-10 96 -77.5 156.5t-176.5 60.5 q-102 0 -166.5 -60.5t-74.5 -156.5z" />
<glyph unicode="f" horiz-adv-x="589" d="M25 864v232h102v49q0 172 80 263t268 91q61 0 88 -2v-229h-51q-111 0 -111 -125v-47h162v-232h-162v-864h-274v864h-102z" />
<glyph unicode="g" horiz-adv-x="1259" d="M39 545q0 242 156.5 405.5t400.5 163.5q213 0 328 -121v103h258v-912q0 -559 -586 -559q-236 0 -408 99l88 217q141 -80 322 -80q137 0 223 57t88 172v14q-103 -122 -300 -122h-3q-254 0 -410.5 156.5t-156.5 406.5zM313 547q0 -139 85 -230.5t218 -91.5 q135 0 218.5 91.5t83.5 230.5t-84 231t-218 92q-137 0 -220 -91t-83 -232z" />
<glyph unicode="h" horiz-adv-x="1003" d="M80 0v1497h274v-483q82 94 232 94q180 0 261 -105.5t81 -279.5v-723h-275v690q0 174 -147 174q-72 0 -112 -47t-40 -127v-690h-274z" />
<glyph unicode="i" horiz-adv-x="434" d="M53 1327q0 70 48.5 118t115.5 48q70 0 117 -48t47 -118q0 -68 -47 -115t-117 -47q-68 0 -116 47t-48 115zM80 0v1096h274v-1096h-274z" />
<glyph unicode="j" horiz-adv-x="434" d="M-76 -121h49q63 0 85 33t22 92v1092h274v-1096q0 -358 -350 -358h-80v237zM53 1327q0 70 47 118t117 48q68 0 116 -48t48 -118q0 -68 -48 -115t-116 -47q-70 0 -117 47t-47 115z" />
<glyph unicode="k" horiz-adv-x="1015" d="M80 0v1497h274v-831l326 430h321l-395 -506l410 -590h-332l-330 483v-483h-274z" />
<glyph unicode="l" horiz-adv-x="434" d="M80 0v1497h274v-1497h-274z" />
<glyph unicode="m" horiz-adv-x="1568" d="M80 0v1096h274v-82q78 94 236 94q176 0 260 -119q102 119 274 119q190 0 279.5 -106.5t89.5 -278.5v-723h-274v690q0 82 -38 128t-110 46t-109.5 -48t-37.5 -126v-690h-275v690q0 80 -38 127t-107 47q-72 0 -111 -47t-39 -131v-686h-274z" />
<glyph unicode="n" horiz-adv-x="1003" d="M80 0v1096h274v-82q76 94 232 94q180 0 261 -105.5t81 -279.5v-723h-275v690q0 174 -147 174q-72 0 -112 -47t-40 -127v-690h-274z" />
<glyph unicode="o" horiz-adv-x="1222" d="M39 545q0 246 163 407.5t408 161.5q256 0 415 -159.5t159 -405.5q0 -244 -161 -405.5t-413 -161.5q-254 0 -412.5 158.5t-158.5 404.5zM313 547q0 -139 84 -228.5t215 -89.5q133 0 215 89.5t82 228.5q0 137 -84 228t-215 91q-133 0 -215 -90t-82 -229z" />
<glyph unicode="p" horiz-adv-x="1263" d="M80 -358v1454h260v-105q123 123 336 123q248 0 398.5 -156.5t150.5 -406.5q0 -244 -152.5 -406.5t-408.5 -162.5q-184 0 -310 106v-446h-274zM346 547q0 -141 84 -231.5t219 -90.5q137 0 219 90.5t82 231.5t-84 232t-219 91q-137 0 -219 -91t-82 -232z" />
<glyph unicode="q" horiz-adv-x="1263" d="M39 549q0 246 155.5 405.5t405.5 159.5q100 0 187 -32.5t137 -88.5v103h260v-1454h-275v452q-41 -45 -127 -78.5t-182 -33.5q-250 0 -405.5 156.5t-155.5 410.5zM313 549q0 -141 84 -232.5t219 -91.5q137 0 219.5 91.5t82.5 232.5q0 139 -85 230t-217 91q-137 0 -220 -91 t-83 -230z" />
<glyph unicode="r" horiz-adv-x="600" d="M80 0v1096h274v-88q66 92 213 92v-287h-69q-78 0 -111 -36t-33 -109v-668h-274z" />
<glyph unicode="s" horiz-adv-x="862" d="M36 335q1 9 1 19h262q0 -147 133 -147q55 0 92 25.5t37 72.5t-25.5 71.5t-82.5 41.5q-133 37 -166 49q-227 82 -228 324q0 139 105.5 229t269.5 90q176 0 272.5 -88t98.5 -258h-252q-4 133 -125 133q-49 0 -79 -25.5t-30 -66.5q0 -76 97 -103q23 -6 72 -18t77 -20 q137 -41 199.5 -118t62.5 -220q0 -160 -114.5 -250t-284.5 -90q-211 0 -304 104q-87 98 -88 245z" />
<glyph unicode="t" horiz-adv-x="614" d="M25 864v232h102v172h274v-172h168v-232h-168v-510q0 -61 24 -88.5t81 -27.5h63v-234l-18 -4q-18 -4 -54 -7t-77 -3q-293 0 -293 286v588h-102z" />
<glyph unicode="u" horiz-adv-x="997" d="M76 375v721h274v-688q0 -174 142 -175q72 0 111.5 48.5t39.5 128.5v686h275v-1096h-273v82q-74 -94 -229 -94q-174 0 -257 104.5t-83 282.5z" />
<glyph unicode="v" horiz-adv-x="1079" d="M-2 1096h303l248 -752l248 752h284l-387 -1096h-301z" />
<glyph unicode="w" horiz-adv-x="1691" d="M2 1096h309l197 -744l203 744h293l202 -744l197 744h287l-320 -1096h-303l-215 702l-211 -702h-309z" />
<glyph unicode="x" horiz-adv-x="1097" d="M-2 0l397 559l-377 537h318l221 -312l221 312h301l-374 -529l395 -567h-307l-248 344l-250 -344h-297z" />
<glyph unicode="y" horiz-adv-x="1085" d="M-2 1096h303l256 -680l248 680h282l-552 -1454h-267l148 401z" />
<glyph unicode="z" horiz-adv-x="888" d="M43 0v199l465 669h-457v228h795v-199l-477 -670h477v-227h-803z" />
<glyph unicode="{" horiz-adv-x="622" d="M33 514v254h2q74 0 97.5 31.5t23.5 105.5v309q0 416 417 416h19v-244h-17q-88 0 -123.5 -43t-35.5 -126v-363q0 -180 -140 -215q139 -31 140 -215v-369q0 -84 35.5 -127t123.5 -43h17v-243h-19q-418 0 -417 415v320q0 74 -23.5 105.5t-97.5 31.5h-2z" />
<glyph unicode="|" horiz-adv-x="497" d="M133 -358v1855h232v-1855h-232z" />
<glyph unicode="}" horiz-adv-x="622" d="M33 -115h14q88 0 124 43t36 127v369q0 184 141 215q-141 35 -141 215v363q0 84 -36 126.5t-124 42.5h-14v244h16q418 0 418 -416v-309q0 -74 23.5 -105.5t97.5 -31.5h4v-254h-4q-74 0 -97.5 -31.5t-23.5 -105.5v-320q0 -416 -418 -415h-16v243z" />
<glyph unicode="~" horiz-adv-x="974" d="M37 440v15q0 146 76 242q80 101 221 102q80 0 164 -49l33 -20q24 -13 35.5 -18t28.5 -10.5t34 -5.5q76 0 80 103h229v-16q0 -151 -74 -245q-78 -99 -217 -100q-86 0 -168 49q-90 49 -129 50q-80 0 -84 -97h-229z" />
<glyph unicode="&#xa1;" horiz-adv-x="483" d="M68 1054.5q0 71.5 50 122t121.5 50.5t123 -50.5t51.5 -122t-51.5 -122.5t-123 -51t-121.5 51t-50 122.5zM102 -215v1040h279v-1040h-279z" />
<glyph unicode="&#xa2;" horiz-adv-x="1013" d="M39 545q0 217 134 374.5t347 186.5v131h152v-129q197 -20 327 -152l-151 -184q-72 76 -176 94v-639q98 18 180 97l149 -183q-131 -135 -329 -153v-129h-152v131q-219 27 -350 181.5t-131 373.5zM307 547q0 -119 58.5 -201t154.5 -110v624q-100 -27 -156.5 -111.5 t-56.5 -201.5z" />
<glyph unicode="&#xa3;" horiz-adv-x="1112" d="M49 0v254h121v311h-121v242h121v201q0 195 116.5 315.5t331.5 120.5q127 0 219.5 -42t138.5 -111.5t66 -142.5q19 -66 19 -137v-14h-281q-6 178 -162 179q-84 0 -123.5 -51.5t-39.5 -135.5v-182h280v-242h-280v-311h614v-254h-1020z" />
<glyph unicode="&#xa5;" horiz-adv-x="1075" d="M4 1417h330l213 -332l211 332h305l-381 -573h272v-205h-278v-127h278v-205h-278v-307h-283v307h-278v205h278v127h-278v205h270z" />
<glyph unicode="&#xa6;" horiz-adv-x="497" d="M133 -358v880h232v-880h-232zM133 639v858h232v-858h-232z" />
<glyph unicode="&#xa7;" horiz-adv-x="1179" d="M47 604q0 109 55.5 183.5t143.5 107.5q-72 92 -72 227q0 164 112.5 275.5t317.5 111.5q125 0 212 -37.5t129 -103t58.5 -131.5t16.5 -141h-272q0 66 -35 115t-113 49q-74 0 -108.5 -36t-34.5 -89q0 -102 139 -150l256 -88q276 -96 276 -354q0 -104 -54 -185.5 t-134 -113.5q70 -78 70 -228q0 -164 -117 -276.5t-322 -112.5q-223 0 -324.5 116t-99.5 308h277q0 -74 36 -124t115 -50q76 0 114 36t38 93q0 55 -32.5 90t-108.5 62l-279 100q-260 94 -260 346zM326 631q0 -84 88 -113l268 -98q30 -11 58 -11q30 0 58 13q52 25 52 92 q0 80 -86 111l-268 98q-34 13 -63 13q-32 0 -58 -16q-49 -30 -49 -89z" />
<glyph unicode="&#xa8;" horiz-adv-x="974" d="M160 1325q0 61 44 104.5t107 43.5q66 0 110 -42t44 -105.5t-45 -107.5t-109 -44q-66 0 -108.5 44t-42.5 107zM537 1325q0 61 43 104.5t106 43.5q68 0 112 -42t44 -105.5t-45 -107.5t-111 -44q-63 0 -106 44t-43 107z" />
<glyph unicode="&#xa9;" horiz-adv-x="1581" d="M47 707q0 313 206 525t529 212q340 0 547 -207t207 -524q0 -315 -206 -527.5t-537 -212.5q-336 0 -541 208.5t-205 525.5zM225 707q0 -250 153.5 -412t414 -162t412 161t151.5 419q0 256 -153.5 413.5t-420.5 157.5q-250 0 -403.5 -161.5t-153.5 -415.5zM416 707 q0 174 111.5 288.5t291.5 114.5q158 0 262 -90l-129 -168q-51 51 -137 51q-82 0 -130 -54t-48 -140q0 -84 51 -138.5t133 -54.5t133 47l127 -153q-100 -100 -258 -101q-186 0 -296.5 113t-110.5 285z" />
<glyph unicode="&#xaa;" horiz-adv-x="733" d="M41 860q0 123 77 198t206 75q92 0 141 -37v47q0 117 -96 117q-94 0 -99 -91h-198q4 123 77.5 192t219.5 69q307 0 307 -314v-524h-178v47q-61 -57 -170 -57q-125 0 -205 75.5t-82 202.5zM244 864q0 -49 30.5 -79.5t81.5 -30.5q49 0 81 30.5t32 79.5t-31.5 80t-83.5 31 q-49 0 -79.5 -31t-30.5 -80z" />
<glyph unicode="&#xab;" horiz-adv-x="800" d="M29 549l164 350h235l-168 -350l168 -346h-235zM373 549l166 350h235l-168 -350l166 -346h-233z" />
<glyph unicode="&#xad;" horiz-adv-x="626" d="M63 457v258h500v-258h-500z" />
<glyph unicode="&#xae;" horiz-adv-x="909" d="M31 1094q0 178 116.5 297.5t301.5 119.5q193 0 311.5 -118.5t118.5 -296.5q0 -176 -118 -297t-306.5 -121t-306 118t-117.5 298zM137 1093.5q0 -139.5 86 -229.5t230 -90q147 0 231 89t84 232.5t-85 230.5t-234 87q-141 0 -226.5 -90t-85.5 -229.5zM299 874v451h178 q74 0 113 -37t39 -100q0 -74 -62 -117l78 -197h-125l-67 170h-33v-170h-121zM420 1143h41q43 0 43 41q0 39 -43 39h-41v-80z" />
<glyph unicode="&#xaf;" horiz-adv-x="819" d="M162 1198v201h495v-201h-495z" />
<glyph unicode="&#xb0;" horiz-adv-x="731" d="M39 1116q0 137 91 230.5t232 93.5q150 0 240 -91.5t90 -228.5q0 -141 -90 -232t-237.5 -91t-236.5 91t-89 228zM227 1116q0 -59 39 -100t100.5 -41t98.5 41t37 100q0 61 -39 103.5t-98 42.5q-61 0 -99.5 -42.5t-38.5 -103.5z" />
<glyph unicode="&#xb2;" horiz-adv-x="661" d="M45 686v152l260 204q49 37 68.5 64t19.5 61q0 33 -18.5 53.5t-52.5 20.5q-76 0 -76 -84h-199q-1 9 0 17q0 93 62 171q68 85 213 85q135 0 209.5 -67t74.5 -183q0 -123 -127 -217l-119 -101h254v-176h-569z" />
<glyph unicode="&#xb3;" horiz-adv-x="655" d="M35 928h203q0 -41 21.5 -63.5t59.5 -22.5q37 0 58.5 22.5t21.5 59.5q0 80 -90 80h-110v131l137 112h-254v170h485v-160l-135 -112q70 -10 123 -66.5t53 -154.5q0 -111 -76.5 -180.5t-216.5 -69.5q-135 0 -206.5 68.5t-73.5 185.5z" />
<glyph unicode="&#xb4;" horiz-adv-x="974" d="M369 1171l155 283h269l-166 -283h-258z" />
<glyph unicode="&#xb6;" horiz-adv-x="950" d="M27 1133q0 127 85 205.5t224 78.5h192v-1417h-209v840q-127 4 -209.5 84t-82.5 209zM645 0v1417h211v-1417h-211z" />
<glyph unicode="&#xb7;" horiz-adv-x="456" d="M53 672q0 76 49.5 126t125 50t124.5 -50t49 -126q0 -74 -50 -125t-123.5 -51t-124 51t-50.5 125z" />
<glyph unicode="&#xb8;" horiz-adv-x="819" d="M260 31h156v-105q160 -45 159 -219q0 -113 -72.5 -175t-201.5 -62h-41v155h43q90 4 90 82t-90 78h-43v246z" />
<glyph unicode="&#xb9;" horiz-adv-x="393" d="M27 1206v166l100 45h188v-731h-209v551z" />
<glyph unicode="&#xba;" horiz-adv-x="905" d="M27 1004q0 186 120.5 306t305.5 120q193 0 310.5 -119t117.5 -303.5t-120 -304t-308 -119.5q-190 0 -308 118t-118 302zM244 1006q0 -96 58 -159t153 -63q92 0 149.5 61.5t57.5 160t-59.5 161t-149.5 62.5q-94 0 -151.5 -62.5t-57.5 -160.5z" />
<glyph unicode="&#xbb;" horiz-adv-x="800" d="M29 203l166 348l-166 348h233l166 -348l-166 -348h-233zM373 203l168 348l-166 348h233l166 -348l-166 -348h-235z" />
<glyph unicode="&#xbc;" horiz-adv-x="1394" d="M6 0l1053 1417h221l-1055 -1417h-219zM90 1206v166l100 45h189v-731h-209v551zM705 143v179l344 415h202v-409h78v-185h-78v-143h-200v143h-346zM901 328h150v180z" />
<glyph unicode="&#xbd;" horiz-adv-x="1427" d="M6 0l1053 1417h221l-1055 -1417h-219zM90 1206v166l100 45h189v-731h-209v551zM794 488q0 93 62 170q68 85 213 85q135 0 211 -66.5t76 -182.5q0 -127 -129 -220l-119 -98h256v-176h-569v154l258 202q49 37 68.5 63.5t19.5 61.5q0 33 -18.5 53.5t-53.5 20.5 q-76 0 -76 -84h-198q-1 9 -1 17z" />
<glyph unicode="&#xbe;" horiz-adv-x="1544" d="M61 928h203q0 -41 21.5 -63.5t60.5 -22.5q37 0 58.5 22.5t21.5 59.5q0 80 -90 80h-111v131l137 112h-253v170h485v-160l-135 -112q70 -10 123 -66.5t53 -154.5q0 -111 -77 -180.5t-216 -69.5q-135 0 -207 68.5t-74 185.5zM162 0l1052 1417h222l-1055 -1417h-219zM856 143 v179l344 415h203v-409h78v-185h-78v-143h-201v143h-346zM1051 328h151v180z" />
<glyph unicode="&#xbf;" horiz-adv-x="968" d="M43 166q0 154 92 253t236 116v290h272v-491h-149q-80 0 -127.5 -42t-47.5 -122q0 -74 45.5 -121t120.5 -47q92 0 129 58.5t37 132.5h275v-14q0 -55 -15 -113q-16 -66 -58 -137.5t-138.5 -118t-231.5 -46.5q-207 0 -323.5 113t-116.5 289zM334 1057q0 72 50 122t122 50 t123 -50.5t51 -121.5q0 -74 -51 -124t-123 -50t-122 50t-50 124z" />
<glyph unicode="&#xc0;" horiz-adv-x="1327" d="M-12 0l512 1417h299l536 -1417h-301l-141 389h-485l-140 -389h-280zM350 1749h268l150 -266h-260zM496 631h309l-156 426z" />
<glyph unicode="&#xc1;" horiz-adv-x="1327" d="M-12 0l512 1417h299l536 -1417h-301l-141 389h-485l-140 -389h-280zM496 631h309l-156 426zM524 1483l150 266h272l-158 -266h-264z" />
<glyph unicode="&#xc2;" horiz-adv-x="1327" d="M-12 0l512 1417h299l536 -1417h-301l-141 389h-485l-140 -389h-280zM295 1483l211 266h285l210 -266h-251l-101 110l-102 -110h-252zM496 631h309l-156 426z" />
<glyph unicode="&#xc3;" horiz-adv-x="1327" d="M-12 0l512 1417h299l536 -1417h-301l-141 389h-485l-140 -389h-280zM305 1489q-1 11 0 21q0 105 56 176q62 78 167 77q61 0 125 -34.5t88 -34.5q55 0 56 71h196q0 -8 1 -15q0 -114 -57 -184q-60 -75 -163 -75q-57 0 -123.5 35t-91.5 35q-59 0 -59 -72h-195zM496 631h309 l-156 426z" />
<glyph unicode="&#xc4;" horiz-adv-x="1327" d="M-10 0l512 1417h299l536 -1417h-301l-141 389h-485l-140 -389h-280zM295 1628.5q0 63.5 43 106.5t106 43q66 0 111 -43t45 -106.5t-45 -106.5t-111 -43q-63 0 -106 43t-43 106.5zM498 631h309l-156 426zM698 1628.5q0 63.5 44 106.5t108 43q66 0 110 -43t44 -106.5 t-44.5 -106.5t-110 -43t-108.5 43t-43 106.5z" />
<glyph unicode="&#xc5;" horiz-adv-x="1327" d="M-10 0l512 1417h299l536 -1417h-301l-141 389h-485l-140 -389h-280zM424 1677q0 94 63.5 156.5t159.5 62.5q104 0 167 -60t63 -155q0 -96 -62.5 -157.5t-165.5 -61.5q-98 0 -161.5 61.5t-63.5 153.5zM498 631h309l-156 426zM563 1679q0 -41 23.5 -65.5t64.5 -24.5 t63.5 24.5t22.5 67.5q0 39 -23.5 63.5t-64.5 24.5q-39 0 -62.5 -24.5t-23.5 -65.5z" />
<glyph unicode="&#xc6;" horiz-adv-x="1599" d="M-23 0l781 1417h770v-266h-365v-295h353v-262h-353v-328h369v-266h-653v346h-400l-184 -346h-318zM606 588h273v510z" />
<glyph unicode="&#xc7;" horiz-adv-x="1284" d="M47 707q0 317 205 527t532 210q285 0 471 -166l-168 -213q-131 115 -301 115q-201 0 -320.5 -133.5t-119.5 -337.5q0 -203 124 -336t321 -133q166 0 303 118l166 -198q-190 -186 -469 -187h-27v-47q160 -45 160 -219q0 -113 -73 -175t-202 -62h-41v155h43q90 4 90 82 t-90 78h-43v207q-260 53 -410.5 248t-150.5 467z" />
<glyph unicode="&#xc8;" horiz-adv-x="815" d="M94 0v1417h649v-266h-364v-295h354v-262h-354v-328h371v-266h-656zM158 1749h268l149 -266h-260z" />
<glyph unicode="&#xc9;" horiz-adv-x="815" d="M94 0v1417h649v-266h-364v-295h354v-262h-354v-328h371v-266h-656zM268 1483l150 266h272l-158 -266h-264z" />
<glyph unicode="&#xca;" horiz-adv-x="815" d="M63 1483l211 266h285l211 -266h-252l-100 110l-103 -110h-252zM94 0v1417h649v-266h-364v-295h354v-262h-354v-328h371v-266h-656z" />
<glyph unicode="&#xcb;" horiz-adv-x="815" d="M74 1628.5q0 63.5 43 106.5t106 43q66 0 111 -43t45 -106.5t-45 -106.5t-111 -43q-63 0 -106 43t-43 106.5zM94 0v1417h649v-266h-364v-295h354v-262h-354v-328h371v-266h-656zM477 1628.5q0 63.5 44 106.5t108 43q66 0 109.5 -43t43.5 -106.5t-44 -106.5t-109.5 -43 t-108.5 43t-43 106.5z" />
<glyph unicode="&#xcc;" horiz-adv-x="473" d="M-53 1749h268l150 -266h-261zM94 0v1417h285v-1417h-285z" />
<glyph unicode="&#xcd;" horiz-adv-x="473" d="M94 0v1417h285v-1417h-285zM106 1483l150 266h272l-157 -266h-265z" />
<glyph unicode="&#xce;" horiz-adv-x="473" d="M-111 1483l203 266h285l205 -266h-250l-96 112l-97 -112h-250zM94 0v1417h285v-1417h-285z" />
<glyph unicode="&#xcf;" horiz-adv-x="473" d="M-111 1628.5q0 63.5 44 106.5t108 43q66 0 110 -43t44 -106.5t-44.5 -106.5t-110 -43t-108.5 43t-43 106.5zM94 0v1417h285v-1417h-285zM279 1628.5q0 63.5 43 106.5t106 43q66 0 111 -43t45 -106.5t-45 -106.5t-111 -43q-63 0 -106 43t-43 106.5z" />
<glyph unicode="&#xd0;" horiz-adv-x="1202" d="M16 586v266h107v565h287q348 0 545.5 -188.5t197.5 -517.5q0 -328 -198.5 -519.5t-544.5 -191.5h-287v586h-107zM408 252h16h7q198 0 310 118q115 120 115 341q0 219 -114 338q-112 117 -311 116h-7h-16v-313h200v-266h-200v-334z" />
<glyph unicode="&#xd1;" horiz-adv-x="1368" d="M92 0v1417h295l608 -950v950h277v-1417h-283l-620 934v-934h-277zM360 1489q-1 11 0 21q0 105 57 176q62 78 167 77q61 0 124.5 -34.5t88.5 -34.5q55 0 55 71h197v-15q0 -114 -57 -184q-60 -75 -163 -75q-57 0 -123.5 35t-91.5 35q-59 0 -59 -72h-195z" />
<glyph unicode="&#xd2;" d="M45 707q0 315 206 526t525 211q334 0 539 -208t205 -525.5t-205 -527.5t-533 -210q-334 0 -535.5 207.5t-201.5 526.5zM344 708.5q0 -204.5 121 -336.5t317 -132q201 0 320 131t119 338q0 205 -121 338t-320 133q-201 0 -318.5 -133.5t-117.5 -338zM498 1749h268 l149 -266h-260z" />
<glyph unicode="&#xd3;" d="M45 707q0 315 206 526t525 211q334 0 539 -208t205 -525.5t-205 -527.5t-533 -210q-334 0 -535.5 207.5t-201.5 526.5zM344 708.5q0 -204.5 121 -336.5t317 -132q201 0 320 131t119 338q0 205 -121 338t-320 133q-201 0 -318.5 -133.5t-117.5 -338zM639 1483l149 266h273 l-158 -266h-264z" />
<glyph unicode="&#xd4;" d="M45 707q0 315 206 526t525 211q334 0 539 -208t205 -525.5t-205 -527.5t-533 -210q-334 0 -535.5 207.5t-201.5 526.5zM344 708.5q0 -204.5 121 -336.5t317 -132q201 0 320 131t119 338q0 205 -121 338t-320 133q-201 0 -318.5 -133.5t-117.5 -338zM428 1483l211 266h285 l211 -266h-252l-101 110l-102 -110h-252z" />
<glyph unicode="&#xd5;" d="M45 707q0 315 206 526t525 211q334 0 539 -208t205 -525.5t-205 -527.5t-533 -210q-334 0 -535.5 207.5t-201.5 526.5zM344 708.5q0 -204.5 121 -336.5t317 -132q201 0 320 131t119 338q0 205 -121 338t-320 133q-201 0 -318.5 -133.5t-117.5 -338zM436 1489q-1 11 0 21 q0 105 57 176q62 78 166 77q61 0 125 -34.5t88 -34.5q55 0 56 71h196q0 -8 1 -15q0 -114 -57 -184q-60 -75 -163 -75q-57 0 -123.5 35t-91.5 35q-59 0 -59 -72h-195z" />
<glyph unicode="&#xd6;" d="M45 707q0 315 206 526t525 211q334 0 539 -208t205 -525.5t-205 -527.5t-533 -210q-334 0 -535.5 207.5t-201.5 526.5zM344 708.5q0 -204.5 121 -336.5t317 -132q201 0 320 131t119 338q0 205 -121 338t-320 133q-201 0 -318.5 -133.5t-117.5 -338zM428 1628.5 q0 63.5 43 106.5t107 43q66 0 110.5 -43t44.5 -106.5t-45 -106.5t-110 -43q-63 0 -106.5 43t-43.5 106.5zM831 1628.5q0 63.5 44.5 106.5t107.5 43q66 0 110 -43t44 -106.5t-44 -106.5t-109.5 -43t-109 43t-43.5 106.5z" />
<glyph unicode="&#xd7;" horiz-adv-x="864" d="M35 449l237 237l-237 238l160 161l237 -239l238 237l159 -159l-237 -238l237 -237l-157 -160l-240 237l-237 -237z" />
<glyph unicode="&#xd8;" d="M45 707q0 315 205 525t522 210q238 0 395 -107l103 117l182 -160l-98 -112q158 -188 157 -469q0 -313 -203.5 -523.5t-529.5 -210.5q-231 0 -389 105l-106 -123l-183 158l103 119q-158 188 -158 471zM338 709q0 -143 59 -252l592 676q-96 51 -213 51q-201 0 -319.5 -134 t-118.5 -341zM567 285q98 -49 209 -49q201 0 321 133t120 340q0 133 -60 247z" />
<glyph unicode="&#xd9;" horiz-adv-x="1302" d="M86 553v864h285v-864q0 -145 70.5 -229t211.5 -84q135 0 207 86t72 229v862h285v-862q0 -260 -148.5 -421t-419.5 -161q-281 0 -422 155t-141 425zM381 1749h268l150 -266h-260z" />
<glyph unicode="&#xda;" horiz-adv-x="1302" d="M86 553v864h285v-864q0 -145 70.5 -229t211.5 -84q135 0 207 86t72 229v862h285v-862q0 -260 -148.5 -421t-419.5 -161q-281 0 -422 155t-141 425zM510 1483l149 266h273l-158 -266h-264z" />
<glyph unicode="&#xdb;" horiz-adv-x="1302" d="M86 553v864h285v-864q0 -145 70.5 -229t211.5 -84q135 0 207 86t72 229v862h285v-862q0 -260 -148.5 -421t-419.5 -161q-281 0 -422 155t-141 425zM299 1483l211 266h285l211 -266h-252l-101 110l-102 -110h-252z" />
<glyph unicode="&#xdc;" horiz-adv-x="1302" d="M86 553v864h285v-864q0 -145 70.5 -229t211.5 -84q135 0 207 86t72 229v862h285v-862q0 -260 -148.5 -421t-419.5 -161q-281 0 -422 155t-141 425zM295 1628.5q0 63.5 43 106.5t106 43q66 0 111 -43t45 -106.5t-45 -106.5t-111 -43q-63 0 -106 43t-43 106.5zM698 1628.5 q0 63.5 44 106.5t108 43q66 0 110 -43t44 -106.5t-44.5 -106.5t-110 -43t-108.5 43t-43 106.5z" />
<glyph unicode="&#xdd;" horiz-adv-x="1044" d="M-18 1417h317l229 -430l234 430h301l-401 -704v-713h-285v709zM399 1483l150 266h272l-157 -266h-265z" />
<glyph unicode="&#xde;" horiz-adv-x="1005" d="M94 0v1417h283v-284h155q211 0 323 -105.5t112 -302.5t-118 -309.5t-317 -112.5h-155v-303h-283zM377 555h133q78 0 120 45t42 123q0 76 -42 119t-120 43h-133v-330z" />
<glyph unicode="&#xdf;" horiz-adv-x="1069" d="M80 0v1096q0 186 102.5 299.5t325.5 113.5q193 0 301.5 -96t108.5 -262q0 -82 -37 -145.5t-86 -92.5q233 -127 233 -419q0 -233 -146 -367q-140 -127 -365 -127h-21h-31v229h24q113 2 188 72q77 72 77 201q0 118 -76 187q-78 71 -191 71h-22v223h33q68 0 109.5 43 t41.5 107q0 68 -40 107.5t-109 39.5q-76 0 -111 -47t-35 -115v-1118h-274z" />
<glyph unicode="&#xe0;" horiz-adv-x="960" d="M43 358q0 156 104.5 258.5t272.5 102.5q125 0 194 -45v55q0 162 -143 162q-70 0 -101.5 -37t-31.5 -90h-256q4 160 102.5 252t286.5 92q223 0 318.5 -109.5t95.5 -308.5v-690h-230v70q-78 -84 -231 -84q-166 0 -273.5 102t-107.5 270zM193 1454h268l155 -283h-258z M301 360q0 -70 45 -113.5t115 -43.5q68 0 112.5 44t44.5 113.5t-45 112.5t-114.5 43t-113.5 -44t-44 -112z" />
<glyph unicode="&#xe1;" horiz-adv-x="960" d="M43 358q0 156 104.5 258.5t272.5 102.5q125 0 194 -45v55q0 162 -143 162q-70 0 -101.5 -37t-31.5 -90h-256q4 160 102.5 252t286.5 92q223 0 318.5 -109.5t95.5 -308.5v-690h-230v70q-78 -84 -231 -84q-166 0 -273.5 102t-107.5 270zM301 360q0 -70 45 -113.5t115 -43.5 q68 0 112.5 44t44.5 113.5t-45 112.5t-114.5 43t-113.5 -44t-44 -112zM356 1171l156 283h268l-166 -283h-258z" />
<glyph unicode="&#xe2;" horiz-adv-x="960" d="M43 358q0 156 104.5 258.5t272.5 102.5q125 0 194 -45v55q0 162 -143 162q-70 0 -101.5 -37t-31.5 -90h-256q4 160 102.5 252t286.5 92q223 0 318.5 -109.5t95.5 -308.5v-690h-230v70q-78 -84 -231 -84q-166 0 -273.5 102t-107.5 270zM145 1167l197 291h274l197 -291 h-240l-94 127l-94 -127h-240zM301 360q0 -70 45 -113.5t115 -43.5q68 0 112.5 44t44.5 113.5t-45 112.5t-114.5 43t-113.5 -44t-44 -112z" />
<glyph unicode="&#xe3;" horiz-adv-x="960" d="M43 358q0 156 104.5 258.5t272.5 102.5q125 0 194 -45v55q0 162 -143 162q-70 0 -101.5 -37t-31.5 -90h-256q4 160 102.5 252t286.5 92q223 0 318.5 -109.5t95.5 -308.5v-690h-230v70q-78 -84 -231 -84q-166 0 -273.5 102t-107.5 270zM141 1171v16q0 109 56 180 q59 77 165 77q59 0 121 -35t86 -35q51 0 52 72h194v-16q0 -114 -54 -184q-58 -75 -163 -75q-55 0 -118.5 35t-90.5 35q-53 0 -53 -70h-195zM301 360q0 -70 45 -113.5t115 -43.5q68 0 112.5 44t44.5 113.5t-45 112.5t-114.5 43t-113.5 -44t-44 -112z" />
<glyph unicode="&#xe4;" horiz-adv-x="960" d="M43 358q0 156 104.5 258.5t272.5 102.5q125 0 194 -45v55q0 162 -143 162q-70 0 -101.5 -37t-31.5 -90h-256q4 160 102.5 252t286.5 92q223 0 318.5 -109.5t95.5 -308.5v-690h-230v70q-78 -84 -231 -84q-166 0 -273.5 102t-107.5 270zM135 1325q0 61 44 104.5t108 43.5 q66 0 109.5 -42t43.5 -105.5t-45 -107.5t-108 -44q-66 0 -109 44t-43 107zM301 360q0 -70 45 -113.5t115 -43.5q68 0 112.5 44t44.5 113.5t-45 112.5t-114.5 43t-113.5 -44t-44 -112zM512 1325q0 61 43 104.5t107 43.5q68 0 111.5 -42t43.5 -105.5t-45 -107.5t-110 -44 q-63 0 -106.5 44t-43.5 107z" />
<glyph unicode="&#xe5;" horiz-adv-x="960" d="M43 358q0 156 104.5 258.5t272.5 102.5q125 0 194 -45v55q0 162 -143 162q-70 0 -101.5 -37t-31.5 -90h-256q4 160 102.5 252t286.5 92q223 0 318.5 -109.5t95.5 -308.5v-690h-230v70q-78 -84 -231 -84q-166 0 -273.5 102t-107.5 270zM250 1360q0 94 63.5 156.5 t157.5 62.5q102 0 164.5 -61.5t62.5 -153.5q0 -94 -62.5 -155.5t-162.5 -61.5q-98 0 -160.5 60.5t-62.5 152.5zM301 360q0 -70 45 -113.5t115 -43.5q68 0 112.5 44t44.5 113.5t-45 112.5t-114.5 43t-113.5 -44t-44 -112zM383 1364q0 -41 25.5 -68.5t66.5 -27.5 q39 0 64.5 27.5t25.5 68.5t-24.5 66.5t-67.5 25.5q-39 0 -64.5 -25.5t-25.5 -66.5z" />
<glyph unicode="&#xe6;" horiz-adv-x="1701" d="M43 356q0 157 101 257q103 101 276 102q125 0 192 -51v65q0 162 -141 162q-68 0 -99.5 -38t-31.5 -89h-256q4 160 102.5 252t286.5 92q221 0 309 -143q123 147 355 147q244 0 388 -146.5t146 -394.5q0 -43 -4 -112h-780q4 -98 78.5 -166t193.5 -68q180 0 268 166 l211 -119q-55 -123 -176 -205.5t-303 -82.5q-258 0 -403 161q-100 -164 -312 -163q-178 0 -289.5 100t-111.5 274zM301 362q0 -70 45 -113.5t115 -43.5q68 0 112.5 44t44.5 113.5t-45 112.5t-114.5 43t-113.5 -44t-44 -112zM893 657h491q-6 100 -73.5 163t-175.5 63 q-104 0 -168 -66t-74 -160z" />
<glyph unicode="&#xe7;" horiz-adv-x="999" d="M39 545q0 242 160.5 405.5t404.5 163.5q242 0 385 -147l-158 -191q-94 90 -225 90q-133 0 -213 -90t-80 -229q0 -143 86 -230.5t209 -87.5q121 0 230 90l151 -184q-145 -154 -383 -153h-16v-56q160 -45 160 -219q0 -113 -73 -175t-202 -62h-41v155h43q90 4 90 82t-90 78 h-43v219q-182 51 -288.5 196.5t-106.5 344.5z" />
<glyph unicode="&#xe8;" horiz-adv-x="1146" d="M39 545q0 248 150.5 408.5t388.5 160.5q246 0 391 -147.5t145 -395.5q0 -66 -4 -112h-782q10 -109 82.5 -171.5t189.5 -62.5q172 0 277 164l202 -123q-57 -121 -177 -202.5t-302 -81.5q-252 0 -406.5 152.5t-154.5 410.5zM295 1454h268l156 -283h-258zM334 666h495 q-10 96 -77.5 156.5t-176.5 60.5q-102 0 -166.5 -60.5t-74.5 -156.5z" />
<glyph unicode="&#xe9;" horiz-adv-x="1146" d="M39 545q0 248 150.5 408.5t388.5 160.5q246 0 391 -147.5t145 -395.5q0 -66 -4 -112h-782q10 -109 82.5 -171.5t189.5 -62.5q172 0 277 164l202 -123q-57 -121 -177 -202.5t-302 -81.5q-252 0 -406.5 152.5t-154.5 410.5zM334 666h495q-10 96 -77.5 156.5t-176.5 60.5 q-102 0 -166.5 -60.5t-74.5 -156.5zM453 1171l155 283h269l-166 -283h-258z" />
<glyph unicode="&#xea;" horiz-adv-x="1146" d="M39 545q0 248 150.5 408.5t388.5 160.5q246 0 391 -147.5t145 -395.5q0 -66 -4 -112h-782q10 -109 82.5 -171.5t189.5 -62.5q172 0 277 164l202 -123q-57 -121 -177 -202.5t-302 -81.5q-252 0 -406.5 152.5t-154.5 410.5zM240 1167l196 291h275l196 -291h-239l-95 127 l-94 -127h-239zM334 666h495q-10 96 -77.5 156.5t-176.5 60.5q-102 0 -166.5 -60.5t-74.5 -156.5z" />
<glyph unicode="&#xeb;" horiz-adv-x="1146" d="M39 545q0 248 150.5 408.5t388.5 160.5q246 0 391 -147.5t145 -395.5q0 -66 -4 -112h-782q10 -109 82.5 -171.5t189.5 -62.5q172 0 277 164l202 -123q-57 -121 -177 -202.5t-302 -81.5q-252 0 -406.5 152.5t-154.5 410.5zM238 1325q0 61 44 104.5t107 43.5q66 0 110 -42 t44 -105.5t-45 -107.5t-109 -44q-66 0 -108.5 44t-42.5 107zM334 666h495q-10 96 -77.5 156.5t-176.5 60.5q-102 0 -166.5 -60.5t-74.5 -156.5zM614 1325q0 61 43 104.5t107 43.5q68 0 112 -42t44 -105.5t-45.5 -107.5t-110.5 -44q-63 0 -106.5 44t-43.5 107z" />
<glyph unicode="&#xec;" horiz-adv-x="434" d="M-78 1454h268l156 -283h-258zM80 0v1096h274v-1096h-274z" />
<glyph unicode="&#xed;" horiz-adv-x="434" d="M80 0v1096h274v-1096h-274zM92 1171l156 283h268l-166 -283h-258z" />
<glyph unicode="&#xee;" horiz-adv-x="434" d="M-109 1167l189 291h274l191 -291h-240l-88 127l-88 -127h-238zM80 0v1096h274v-1096h-274z" />
<glyph unicode="&#xef;" horiz-adv-x="434" d="M-117 1325q0 61 44 104.5t108 43.5q66 0 109.5 -42t43.5 -105.5t-45 -107.5t-108.5 -44t-107.5 44t-44 107zM80 0v1096h274v-1096h-274zM248 1325q0 61 43 104.5t106 43.5q68 0 112 -42t44 -105.5t-45 -107.5t-111 -44q-63 0 -106 44t-43 107z" />
<glyph unicode="&#xf0;" horiz-adv-x="1224" d="M39 543q0 250 159.5 397t387.5 152q14 0 26 -5l-82 97l-243 -66l-51 191l157 43l-121 145h312l67 -76l213 58l51 -191l-116 -33l147 -163q119 -133 178.5 -258t59.5 -273q0 -250 -157 -414.5t-406 -164.5q-256 0 -419 156.5t-163 404.5zM313 545q0 -137 84 -226.5 t215 -89.5q135 0 216 88.5t81 227.5q0 137 -83 227t-216 90t-215 -89t-82 -228z" />
<glyph unicode="&#xf1;" horiz-adv-x="1003" d="M80 0v1096h274v-82q76 94 232 94q180 0 261 -105.5t81 -279.5v-723h-275v690q0 174 -147 174q-72 0 -112 -47t-40 -127v-690h-274zM159 1187q0 109 56 180q59 77 166 77q59 0 120.5 -35t86.5 -35q51 0 51 72h195v-16q0 -114 -55 -184q-58 -75 -163 -75q-55 0 -118.5 35 t-89.5 35q-53 0 -54 -70h-194q0 8 -1 16z" />
<glyph unicode="&#xf2;" horiz-adv-x="1222" d="M39 545q0 246 163 407.5t408 161.5q256 0 415 -159.5t159 -405.5q0 -244 -161 -405.5t-413 -161.5q-254 0 -412.5 158.5t-158.5 404.5zM313 547q0 -139 84 -228.5t215 -89.5q133 0 215 89.5t82 228.5q0 137 -84 228t-215 91q-133 0 -215 -90t-82 -229zM330 1454h268 l156 -283h-258z" />
<glyph unicode="&#xf3;" horiz-adv-x="1222" d="M39 545q0 246 163 407.5t408 161.5q256 0 415 -159.5t159 -405.5q0 -244 -161 -405.5t-413 -161.5q-254 0 -412.5 158.5t-158.5 404.5zM313 547q0 -139 84 -228.5t215 -89.5q133 0 215 89.5t82 228.5q0 137 -84 228t-215 91q-133 0 -215 -90t-82 -229zM481 1171l156 283 h268l-166 -283h-258z" />
<glyph unicode="&#xf4;" horiz-adv-x="1222" d="M39 545q0 246 163 407.5t408 161.5q256 0 415 -159.5t159 -405.5q0 -244 -161 -405.5t-413 -161.5q-254 0 -412.5 158.5t-158.5 404.5zM276 1167l197 291h275l196 -291h-239l-95 127l-94 -127h-240zM313 547q0 -139 84 -228.5t215 -89.5q133 0 215 89.5t82 228.5 q0 137 -84 228t-215 91q-133 0 -215 -90t-82 -229z" />
<glyph unicode="&#xf5;" horiz-adv-x="1222" d="M39 545q0 246 163 407.5t408 161.5q256 0 415 -159.5t159 -405.5q0 -244 -161 -405.5t-413 -161.5q-254 0 -412.5 158.5t-158.5 404.5zM274 1171v16q0 109 56 180q59 77 166 77q59 0 120.5 -35t85.5 -35q51 0 52 72h194v-16q0 -114 -54 -184q-58 -75 -163 -75 q-55 0 -118.5 35t-90.5 35q-53 0 -53 -70h-195zM313 547q0 -139 84 -228.5t215 -89.5q133 0 215 89.5t82 228.5q0 137 -84 228t-215 91q-133 0 -215 -90t-82 -229z" />
<glyph unicode="&#xf6;" horiz-adv-x="1222" d="M39 545q0 246 163 407.5t408 161.5q256 0 415 -159.5t159 -405.5q0 -244 -161 -405.5t-413 -161.5q-254 0 -412.5 158.5t-158.5 404.5zM268 1325q0 61 44 104.5t108 43.5q66 0 109.5 -42t43.5 -105.5t-45 -107.5t-108.5 -44t-107.5 44t-44 107zM313 547q0 -139 84 -228.5 t215 -89.5q133 0 215 89.5t82 228.5q0 137 -84 228t-215 91q-133 0 -215 -90t-82 -229zM645 1325q0 61 43 104.5t107 43.5q68 0 111.5 -42t43.5 -105.5t-45 -107.5t-110 -44q-63 0 -106.5 44t-43.5 107z" />
<glyph unicode="&#xf7;" horiz-adv-x="962" d="M55 575v230h850v-230h-850zM324 329.5q0 65.5 46 111.5t111 46q68 0 113 -46t45 -111.5t-46 -111.5t-111.5 -46t-111.5 46t-46 111.5zM324 1046.5q0 65.5 46 110.5t111 45q68 0 113 -45t45 -110.5t-46 -112.5t-111.5 -47t-111.5 47t-46 112.5z" />
<glyph unicode="&#xf8;" horiz-adv-x="1222" d="M39 547q0 244 161.5 405.5t409.5 161.5q162 0 293 -76l78 90l152 -127l-76 -88q127 -154 127 -364q0 -244 -161 -405.5t-413 -161.5q-176 0 -293 75l-84 -96l-147 127l80 92q-127 148 -127 367zM305 547q0 -90 35 -164l401 467q-61 29 -131 29q-139 0 -222 -93.5 t-83 -238.5zM479 246q61 -29 133 -29q139 0 222.5 92t83.5 238q0 92 -37 164z" />
<glyph unicode="&#xf9;" horiz-adv-x="997" d="M76 375v721h274v-688q0 -174 142 -175q72 0 111.5 48.5t39.5 128.5v686h275v-1096h-273v82q-74 -94 -229 -94q-174 0 -257 104.5t-83 282.5zM223 1454h269l155 -283h-258z" />
<glyph unicode="&#xfa;" horiz-adv-x="997" d="M76 375v721h274v-688q0 -174 142 -175q72 0 111.5 48.5t39.5 128.5v686h275v-1096h-273v82q-74 -94 -229 -94q-174 0 -257 104.5t-83 282.5zM358 1171l156 283h268l-166 -283h-258z" />
<glyph unicode="&#xfb;" horiz-adv-x="997" d="M76 375v721h274v-688q0 -174 142 -175q72 0 111.5 48.5t39.5 128.5v686h275v-1096h-273v82q-74 -94 -229 -94q-174 0 -257 104.5t-83 282.5zM164 1167l196 291h275l196 -291h-239l-94 127l-95 -127h-239z" />
<glyph unicode="&#xfc;" horiz-adv-x="997" d="M76 375v721h274v-688q0 -174 142 -175q72 0 111.5 48.5t39.5 128.5v686h275v-1096h-273v82q-74 -94 -229 -94q-174 0 -257 104.5t-83 282.5zM152 1325q0 61 44 104.5t107 43.5q66 0 110 -42t44 -105.5t-45 -107.5t-109 -44q-66 0 -108.5 44t-42.5 107zM528 1325 q0 61 43 104.5t107 43.5q68 0 112 -42t44 -105.5t-45.5 -107.5t-110.5 -44q-63 0 -106.5 44t-43.5 107z" />
<glyph unicode="&#xfd;" horiz-adv-x="1085" d="M-2 1096h303l256 -680l248 680h282l-552 -1454h-267l148 401zM412 1171l155 283h269l-166 -283h-258z" />
<glyph unicode="&#xfe;" horiz-adv-x="1263" d="M80 -360v1855h274v-500q123 119 324 119q250 0 398.5 -156.5t148.5 -406.5q0 -244 -155 -406.5t-411 -162.5q-182 0 -305 104v-446h-274zM346 547q0 -141 83 -231.5t218 -90.5q137 0 219 90.5t82 231.5t-83 232t-220 91q-135 0 -217 -91t-82 -232z" />
<glyph unicode="&#xff;" horiz-adv-x="1085" d="M-2 1096h303l256 -680l248 680h282l-552 -1454h-267l148 401zM215 1325q0 61 44 104.5t108 43.5q66 0 109.5 -42t43.5 -105.5t-45 -107.5t-108.5 -44t-107.5 44t-44 107zM592 1325q0 61 43 104.5t106 43.5q68 0 112 -42t44 -105.5t-45 -107.5t-111 -44q-63 0 -106 44 t-43 107z" />
<glyph unicode="&#x152;" horiz-adv-x="1497" d="M47 711q0 322 199.5 514t544.5 192h634v-266h-364v-295h354v-262h-354v-328h371v-266h-641q-346 0 -545 193.5t-199 517.5zM344 711q0 -213 116 -330q114 -115 309 -115h7v885h-7q-198 0 -310 -113q-115 -114 -115 -327z" />
<glyph unicode="&#x153;" horiz-adv-x="2011" d="M39 545q0 246 163 407.5t408 161.5q276 0 432 -199q150 197 402 197q244 0 388 -146.5t146 -394.5q0 -43 -4 -112h-780q4 -98 79 -166t193 -68q180 0 269 166l211 -119q-55 -123 -176 -205.5t-304 -82.5q-276 0 -428 192q-162 -195 -428 -194q-254 0 -412.5 158.5 t-158.5 404.5zM313 547q0 -139 84 -228.5t215 -89.5q133 0 215 89.5t82 228.5t-84 229t-215 90q-133 0 -215 -90t-82 -229zM1200 657h492q-6 100 -74 163t-176 63q-104 0 -168 -66t-74 -160z" />
<glyph unicode="&#x178;" horiz-adv-x="1044" d="M-18 1417h317l229 -430l234 430h301l-401 -704v-713h-285v709zM174 1628.5q0 63.5 43 106.5t107 43q66 0 110.5 -43t44.5 -106.5t-45 -106.5t-110 -43q-63 0 -106.5 43t-43.5 106.5zM578 1628.5q0 63.5 44 106.5t107 43q66 0 110 -43t44 -106.5t-44 -106.5t-109.5 -43 t-108.5 43t-43 106.5z" />
<glyph unicode="&#x2c6;" horiz-adv-x="819" d="M76 1167l196 291h275l196 -291h-239l-94 127l-95 -127h-239z" />
<glyph unicode="&#x2dc;" horiz-adv-x="819" d="M71 1187q0 109 56 180q59 77 166 77q59 0 120.5 -35t86.5 -35q51 0 51 72h194q0 -8 1 -16q0 -114 -55 -184q-58 -75 -163 -75q-55 0 -118.5 35t-90.5 35q-53 0 -53 -70h-194q0 8 -1 16z" />
<glyph unicode="&#x2000;" horiz-adv-x="948" />
<glyph unicode="&#x2001;" horiz-adv-x="1896" />
<glyph unicode="&#x2002;" horiz-adv-x="948" />
<glyph unicode="&#x2003;" horiz-adv-x="1896" />
<glyph unicode="&#x2004;" horiz-adv-x="632" />
<glyph unicode="&#x2005;" horiz-adv-x="474" />
<glyph unicode="&#x2006;" horiz-adv-x="316" />
<glyph unicode="&#x2007;" horiz-adv-x="316" />
<glyph unicode="&#x2008;" horiz-adv-x="237" />
<glyph unicode="&#x2009;" horiz-adv-x="379" />
<glyph unicode="&#x200a;" horiz-adv-x="105" />
<glyph unicode="&#x2010;" horiz-adv-x="626" d="M63 457v258h500v-258h-500z" />
<glyph unicode="&#x2011;" horiz-adv-x="626" d="M63 457v258h500v-258h-500z" />
<glyph unicode="&#x2012;" horiz-adv-x="626" d="M63 457v258h500v-258h-500z" />
<glyph unicode="&#x2013;" horiz-adv-x="1251" d="M63 469v225h1125v-225h-1125z" />
<glyph unicode="&#x2014;" horiz-adv-x="1947" d="M63 469v225h1821v-225h-1821z" />
<glyph unicode="&#x2018;" horiz-adv-x="415" d="M37 1042q0 68 43 154l100 221h189l-105 -219q117 -37 117 -156q0 -74 -47 -123t-125 -49q-76 0 -124 49t-48 123z" />
<glyph unicode="&#x2019;" horiz-adv-x="415" d="M35 1262q0 74 47 123t125 49q76 0 123 -49.5t47 -122.5q0 -63 -41 -156l-103 -219h-186l105 219q-117 37 -117 156z" />
<glyph unicode="&#x201a;" horiz-adv-x="415" d="M35 162q0 74 47 123t125 49q76 0 123 -49t47 -123q0 -63 -41 -156l-103 -219h-186l105 219q-117 37 -117 156z" />
<glyph unicode="&#x201c;" horiz-adv-x="817" d="M37 1042q0 68 43 154l100 221h189l-105 -219q117 -37 117 -156q0 -74 -47 -123t-125 -49q-76 0 -124 49t-48 123zM438 1042q0 68 43 154l101 221h188l-104 -219q117 -37 116 -156q0 -74 -47 -123t-125 -49q-76 0 -124 49t-48 123z" />
<glyph unicode="&#x201d;" horiz-adv-x="817" d="M35 1262q0 74 47 123t125 49q76 0 123 -49.5t47 -122.5q0 -63 -41 -156l-103 -219h-186l105 219q-117 37 -117 156zM436 1262q0 74 47 123t125 49q76 0 123 -49.5t47 -122.5q0 -63 -41 -156l-102 -219h-186l104 219q-117 37 -117 156z" />
<glyph unicode="&#x201e;" horiz-adv-x="819" d="M35 162q0 74 47 123t125 49q76 0 123 -49t47 -123q0 -63 -41 -156l-103 -219h-186l105 219q-117 37 -117 156zM438 162q0 74 47 123t125 49q76 0 123 -49t47 -123q0 -63 -41 -156l-102 -219h-186l104 219q-117 37 -117 156z" />
<glyph unicode="&#x2022;" horiz-adv-x="659" d="M41 608q0 121 84 206t205 85t204.5 -85t83.5 -206t-83.5 -205t-204.5 -84t-205 84t-84 205z" />
<glyph unicode="&#x2026;" horiz-adv-x="1329" d="M39 154q0 76 49 126t125 50t125 -50.5t49 -125.5q0 -74 -50 -125.5t-124 -51.5t-124 51.5t-50 125.5zM489 154q0 76 49.5 126t125 50t125 -50.5t49.5 -125.5q0 -74 -50.5 -125.5t-124 -51.5t-124 51.5t-50.5 125.5zM942 154q0 76 49 126t125 50t125 -50.5t49 -125.5 q0 -74 -50 -125.5t-124 -51.5t-124 51.5t-50 125.5z" />
<glyph unicode="&#x202f;" horiz-adv-x="379" />
<glyph unicode="&#x2039;" horiz-adv-x="454" d="M29 549l164 350h235l-168 -350l168 -346h-235z" />
<glyph unicode="&#x203a;" horiz-adv-x="454" d="M29 203l166 348l-166 348h233l166 -348l-166 -348h-233z" />
<glyph unicode="&#x205f;" horiz-adv-x="474" />
<glyph unicode="&#x20ac;" horiz-adv-x="1343" d="M39 444v205h90q-2 18 -2 58q0 47 2 71h-90v205h133q76 209 253 333t423 124q283 0 465 -160l-168 -207q-123 111 -301 111q-231 0 -334 -156q-4 -6 -27 -45h412v-205h-469q-2 -23 -2 -69q0 -41 2 -60h469v-205h-410q16 -33 37 -59q109 -147 332 -147q162 0 297 114 l168 -190q-188 -182 -465 -182q-258 0 -437 125.5t-251 338.5h-127z" />
<glyph unicode="&#x2122;" horiz-adv-x="1282" d="M43 1260v157h383v-157h-104v-420h-175v420h-104zM487 840v577h256l125 -373l123 373h248v-577h-164v374l-125 -374h-172l-129 372v-372h-162z" />
<glyph unicode="&#xe000;" horiz-adv-x="1095" d="M0 1095h1095v-1095h-1095v1095z" />
<glyph unicode="&#xfb01;" horiz-adv-x="1009" d="M25 864v232h102v49q0 172 80 263t268 91q47 0 74 -2v-229h-37q-111 0 -111 -125v-47h148v-232h-148v-864h-274v864h-102zM627 1327q0 70 47 118t114 48q70 0 118 -48t48 -118q0 -68 -48 -115t-118 -47q-68 0 -114.5 47t-46.5 115zM655 0v1096h275v-1096h-275z" />
<glyph unicode="&#xfb02;" horiz-adv-x="1009" d="M25 864v232h102v49q0 172 80 263t268 91q47 0 74 -2v-229h-37q-111 0 -111 -125v-47h148v-232h-148v-864h-274v864h-102zM655 0v1497h275v-1497h-275z" />
<glyph unicode="&#xfb03;" horiz-adv-x="1613" d="M25 864v232h102v49q0 172 80 263t268 91q61 0 88 -2v-229h-51q-111 0 -111 -125v-47h162v-232h-162v-864h-274v864h-102zM614 864v232h103v49q0 172 80 263t268 91q61 0 88 -2v-229h-51q-111 0 -111 -125v-47h162v-232h-162v-864h-274v864h-103zM1233 1327q0 70 48 118 t116 48q70 0 117 -48t47 -118q0 -68 -47.5 -115t-116.5 -47q-68 0 -116 47t-48 115zM1260 0v1096h274v-1096h-274z" />
<glyph unicode="&#xfb04;" horiz-adv-x="1613" d="M25 864v232h102v49q0 172 80 263t268 91q61 0 88 -2v-229h-51q-111 0 -111 -125v-47h162v-232h-162v-864h-274v864h-102zM614 864v232h103v49q0 172 80 263t268 91q61 0 88 -2v-229h-51q-111 0 -111 -125v-47h162v-232h-162v-864h-274v864h-103zM1260 0v1497h274v-1497 h-274z" />
</font>
</defs>
</svg>
